<svg xmlns="http://www.w3.org/2000/svg" viewBox="0 0 347.37 456.87"><defs><style>.cls-1{fill:#6f5f5e;}.cls-2{fill:#d28a7c;}.cls-3{fill:#8eaaac;}</style></defs><g id="Layer_2" data-name="Layer 2"><g id="Layer_1-2" data-name="Layer 1"><path class="cls-1" d="M179.51,233.81,322.85,8.46c9.45-18.87,32.27-2.29,21.84,12l-150,228.46Z"/><path class="cls-1" d="M118.14,248.87C109,255.56,9.89,342.37,2.88,347.31c-5.47,3.84-2.19,7.32,1.9,8.68S68.1,305.6,71.16,303.22c-15,18.72-57.53,62.3-54.47,64.34S133.8,464.24,173,456.41c6.56-53.1,35.4-147.4,38.81-155.91S118.14,248.87,118.14,248.87Z"/><path class="cls-2" d="M115.42,249.43c-1-7.91,57.09-45.23,83.09-31.48,22.36,11.82,28.48,78.72,11.12,91C196.35,309.24,115.41,257.35,115.42,249.43Z"/><path class="cls-3" d="M97.45,266.2C100.89,283,160.58,338.85,200,337.74c-3.77,13.48-2.38,11.44-3.77,13.48-3.54,5.22-86.18-30-110-75.38C88.49,273,97.45,266.2,97.45,266.2Z"/></g></g></svg>