<svg width="360" height="174" viewBox="0 0 360 174" fill="none" xmlns="http://www.w3.org/2000/svg">
<g clip-path="url(#clip0_2_1662)">
<path d="M86.7599 171.58C133.605 171.58 171.58 133.605 171.58 86.7599C171.58 39.9151 133.605 1.93994 86.7599 1.93994C39.9151 1.93994 1.93994 39.9151 1.93994 86.7599C1.93994 133.605 39.9151 171.58 86.7599 171.58Z" fill="#6F5F5E" stroke="#6F5F5E" stroke-width="3.87" stroke-linecap="round" stroke-linejoin="round"/>
<path d="M167.21 80.4499C165.14 80.9099 162.31 82.8299 158.81 87.3399C161.39 84.2299 163.12 50.9999 141.29 81.5199C144.29 76.7899 129.66 33.5199 110.09 71.2199C110.09 71.2199 92.6799 66.8399 86.7499 66.8399C80.8199 66.8399 63.4 71.2199 63.4 71.2199C43.83 33.5199 29.1699 76.7899 32.1999 81.5199C10.3699 50.9999 12.0999 84.2299 14.6799 87.3399C10.9599 82.5499 7.97995 80.6899 5.86995 80.3399C5.87165 80.7293 5.8348 81.1178 5.75995 81.4999C5.41968 83.4201 5.31891 85.375 5.45995 87.3199C5.94995 88.5399 6.45995 89.7999 6.97995 91.0899H165.05C165.415 88.5664 166.185 86.1182 167.33 83.8399C167.202 82.7148 167.162 81.5813 167.21 80.4499Z" fill="white" stroke="white" stroke-width="9" stroke-miterlimit="10"/>
<path d="M158.81 87.34C158.81 87.34 156.73 103.55 143.86 106.93C118.04 113.73 105.51 92.25 101.6 95.64C99.5999 97.36 102.34 106.18 87.9799 108.06H86.1099C71.7399 106.18 74.4799 97.36 72.4899 95.64C68.5699 92.25 56.0499 113.73 30.2299 106.93C17.3599 103.55 14.6799 87.34 14.6799 87.34" fill="white"/>
<path d="M158.81 87.34C158.81 87.34 156.73 103.55 143.86 106.93C118.04 113.73 105.51 92.25 101.6 95.64C99.5999 97.36 102.34 106.18 87.9799 108.06H86.1099C71.7399 106.18 74.4799 97.36 72.4899 95.64C68.5699 92.25 56.0499 113.73 30.2299 106.93C17.3599 103.55 14.6799 87.34 14.6799 87.34" stroke="white" stroke-width="9" stroke-miterlimit="10"/>
<path d="M32.1999 81.52C29.9099 82.32 48.5599 72.9 63.3999 71.22Z" fill="white"/>
<path d="M32.1999 81.52C29.9099 82.32 48.5599 72.9 63.3999 71.22" stroke="white" stroke-width="9" stroke-miterlimit="10"/>
<path d="M140.91 81.52C143.2 82.32 124.56 72.9 109.71 71.22Z" fill="white"/>
<path d="M140.91 81.52C143.2 82.32 124.56 72.9 109.71 71.22" stroke="white" stroke-width="9" stroke-miterlimit="10"/>
<path d="M72.8198 69C77.4924 70.785 81.6014 73.7891 84.7198 77.7L85.7198 84.19C87.14 83.7077 88.6797 83.7077 90.0998 84.19" fill="white"/>
<path d="M72.8198 69C77.4924 70.785 81.6014 73.7891 84.7198 77.7L85.7198 84.19C87.14 83.7077 88.6797 83.7077 90.0998 84.19" stroke="white" stroke-width="9" stroke-miterlimit="10"/>
<path d="M102.25 69.25C102.25 69.25 96.25 70.95 90.65 77.73L89.65 84.22C88.2332 83.7384 86.6969 83.7384 85.28 84.22" fill="white"/>
<path d="M102.25 69.25C102.25 69.25 96.25 70.95 90.65 77.73L89.65 84.22C88.2332 83.7384 86.6969 83.7384 85.28 84.22" stroke="white" stroke-width="9" stroke-miterlimit="10"/>
<path d="M45.6199 88C45.6199 88 57.4799 99.06 67.6199 84.21Z" fill="white"/>
<path d="M45.6199 88C45.6199 88 57.4799 99.06 67.6199 84.21" stroke="white" stroke-width="9" stroke-miterlimit="10"/>
<path d="M129.32 88C129.32 88 117.46 99.06 107.32 84.21Z" fill="white"/>
<path d="M129.32 88C129.32 88 117.46 99.06 107.32 84.21" stroke="white" stroke-width="9" stroke-miterlimit="10"/>
<path d="M16.5299 135.17C15.9399 133.6 20.8599 120.46 30.4599 120.86C34.3212 121.01 37.9941 122.567 40.7866 125.238C43.5791 127.909 45.2982 131.509 45.6199 135.36C46.0999 141.36 50.4199 163.36 52.8599 165.1" fill="white"/>
<path d="M16.5299 135.17C15.9399 133.6 20.8599 120.46 30.4599 120.86C34.3212 121.01 37.9941 122.567 40.7866 125.238C43.5791 127.909 45.2982 131.509 45.6199 135.36C46.0999 141.36 50.4199 163.36 52.8599 165.1" stroke="white" stroke-width="3" stroke-miterlimit="10"/>
<path d="M47.71 137.05C47.71 137.05 61.71 137.99 69.62 149.29C69.62 149.29 69.05 123.69 86.75 145.9" fill="white"/>
<path d="M47.71 137.05C47.71 137.05 61.71 137.99 69.62 149.29C69.62 149.29 69.05 123.69 86.75 145.9" stroke="white" stroke-width="9" stroke-miterlimit="10"/>
<path d="M157.33 135.17C157.93 133.6 153 120.46 143.4 120.86C139.54 121.01 135.868 122.568 133.077 125.239C130.286 127.91 128.569 131.51 128.25 135.36C127.77 141.36 123.45 163.36 121 165.1" fill="white"/>
<path d="M157.33 135.17C157.93 133.6 153 120.46 143.4 120.86C139.54 121.01 135.868 122.568 133.077 125.239C130.286 127.91 128.569 131.51 128.25 135.36C127.77 141.36 123.45 163.36 121 165.1" stroke="white" stroke-width="3" stroke-miterlimit="10"/>
<path d="M126.16 137.05C126.16 137.05 112.16 137.99 104.25 149.29C104.25 149.29 104.82 123.69 87.1199 145.9" fill="white"/>
<path d="M126.16 137.05C126.16 137.05 112.16 137.99 104.25 149.29C104.25 149.29 104.82 123.69 87.1199 145.9" stroke="white" stroke-width="9" stroke-miterlimit="10"/>
<path d="M24.3798 137.73C26.473 137.73 28.1698 135.769 28.1698 133.35C28.1698 130.931 26.473 128.97 24.3798 128.97C22.2867 128.97 20.5898 130.931 20.5898 133.35C20.5898 135.769 22.2867 137.73 24.3798 137.73Z" fill="white"/>
<path d="M35.81 138.64C37.9032 138.64 39.6 136.276 39.6 133.36C39.6 130.444 37.9032 128.08 35.81 128.08C33.7169 128.08 32.02 130.444 32.02 133.36C32.02 136.276 33.7169 138.64 35.81 138.64Z" fill="white" stroke="white" stroke-width="9" stroke-miterlimit="10"/>
<path d="M37.7098 148.44C35.5298 143.95 34.5198 139.95 27.3898 143.44C26.7237 143.747 26.1425 144.211 25.6964 144.793C25.2503 145.375 24.9529 146.057 24.8298 146.78L25.8298 147.3C27.4303 148.051 28.9541 148.955 30.3798 150C33.3404 152.11 36.1783 154.387 38.8798 156.82C39.8198 154.63 39.2298 151.57 37.7098 148.44Z" fill="white"/>
<path d="M149.48 137.73C151.573 137.73 153.27 135.769 153.27 133.35C153.27 130.931 151.573 128.97 149.48 128.97C147.387 128.97 145.69 130.931 145.69 133.35C145.69 135.769 147.387 137.73 149.48 137.73Z" fill="white" stroke="white" stroke-width="9" stroke-miterlimit="10"/>
<path d="M138.06 138.64C140.153 138.64 141.85 136.276 141.85 133.36C141.85 130.444 140.153 128.08 138.06 128.08C135.967 128.08 134.27 130.444 134.27 133.36C134.27 136.276 135.967 138.64 138.06 138.64Z" fill="white" stroke="white" stroke-width="9" stroke-miterlimit="10"/>
<path d="M141 153.6C143.5 151.6 145.51 148 148.54 145.93L148.76 145.8C148.331 144.742 147.516 143.888 146.48 143.41C139.35 139.95 138.34 143.95 136.16 148.41C134.35 152.13 133.87 155.76 135.75 157.87C137.2 156.25 139.16 155.08 141 153.6Z" fill="white"/>
<path d="M113.38 123.31C113.38 123.31 97.93 127 87 118.51H86.64C75.73 126.98 60.28 123.31 60.28 123.31" fill="white"/>
<path d="M113.38 123.31C113.38 123.31 97.93 127 87 118.51H86.64C75.73 126.98 60.28 123.31 60.28 123.31" stroke="white" stroke-width="9" stroke-miterlimit="10"/>
<path d="M171.26 83.3999C171.2 80.1399 166.71 77.1699 158.81 87.3399C161.39 84.2299 163.12 50.9999 141.29 81.5199C144.29 76.7899 129.66 33.5199 110.09 71.2199C110.09 71.2199 92.6799 66.8399 86.7499 66.8399C80.8199 66.8399 63.3999 71.2199 63.3999 71.2199C43.8299 33.5199 29.1699 76.7899 32.1999 81.5199C10.3699 50.9999 12.0999 84.2299 14.6799 87.3399C6.7799 77.1699 2.1799 80.1399 2.2299 83.3999C2.6399 112.47 12.9399 134.21 28.2799 148.84C28.5186 149.026 28.7396 149.233 28.9399 149.46C76.9999 194.23 172.84 170.37 171.26 83.3999Z" fill="#F6FEFF"/>
<path d="M158.81 87.34C158.81 87.34 156.73 103.55 143.86 106.93C118.04 113.73 105.51 92.25 101.6 95.64C99.5999 97.36 102.34 106.18 87.9799 108.06H86.1099C71.7399 106.18 74.4799 97.36 72.4899 95.64C68.5699 92.25 56.0499 113.73 30.2299 106.93C17.3599 103.55 14.6799 87.34 14.6799 87.34" fill="white"/>
<path d="M32.1999 81.52C29.9099 82.32 48.5599 72.9 63.3999 71.22Z" fill="white"/>
<path d="M140.91 81.52C143.2 82.32 124.56 72.9 109.71 71.22Z" fill="white"/>
<path d="M72.8198 69C77.4924 70.785 81.6014 73.7891 84.7198 77.7L85.7198 84.19C87.14 83.7077 88.6797 83.7077 90.0998 84.19" fill="white"/>
<path d="M102.25 69.25C102.25 69.25 96.25 70.95 90.65 77.73L89.65 84.22C88.2332 83.7384 86.6969 83.7384 85.28 84.22" fill="white"/>
<path d="M45.6199 88C45.6199 88 57.4799 99.06 67.6199 84.21Z" fill="white"/>
<path d="M129.32 88C129.32 88 117.46 99.06 107.32 84.21Z" fill="white"/>
<path d="M16.5299 135.17C15.9399 133.6 20.8599 120.46 30.4599 120.86C34.3212 121.01 37.9941 122.567 40.7866 125.238C43.5791 127.909 45.2982 131.509 45.6199 135.36C46.0999 141.36 50.4199 163.36 52.8599 165.1" fill="#F6FEFF"/>
<path d="M47.71 137.05C47.71 137.05 61.71 137.99 69.62 149.29C69.62 149.29 69.05 123.69 86.75 145.9" fill="white"/>
<path d="M157.33 135.17C157.93 133.6 153 120.46 143.4 120.86C139.54 121.01 135.868 122.568 133.077 125.239C130.286 127.91 128.569 131.51 128.25 135.36C127.77 141.36 123.45 163.36 121 165.1" fill="#F6FEFF"/>
<path d="M126.16 137.05C126.16 137.05 112.16 137.99 104.25 149.29C104.25 149.29 104.82 123.69 87.1199 145.9" fill="white"/>
<path d="M24.3798 137.73C26.473 137.73 28.1698 135.769 28.1698 133.35C28.1698 130.931 26.473 128.97 24.3798 128.97C22.2867 128.97 20.5898 130.931 20.5898 133.35C20.5898 135.769 22.2867 137.73 24.3798 137.73Z" fill="white"/>
<path d="M35.81 138.64C37.9032 138.64 39.6 136.276 39.6 133.36C39.6 130.444 37.9032 128.08 35.81 128.08C33.7169 128.08 32.02 130.444 32.02 133.36C32.02 136.276 33.7169 138.64 35.81 138.64Z" fill="white"/>
<path d="M37.71 148.44C35.53 143.95 34.52 139.95 27.39 143.44C26.8153 143.712 26.3051 144.104 25.8931 144.588C25.4811 145.073 25.1767 145.639 25 146.25C25.8805 146.83 26.6982 147.5 27.44 148.25L27.93 148.55C28.8246 149.098 29.5242 149.913 29.93 150.88C30.25 151.25 30.58 151.61 30.93 151.97C33.11 154.28 36.07 155.54 38.42 157.65C40 155.51 39.45 152 37.71 148.44Z" fill="white"/>
<path d="M149.48 137.73C151.573 137.73 153.27 135.769 153.27 133.35C153.27 130.931 151.573 128.97 149.48 128.97C147.387 128.97 145.69 130.931 145.69 133.35C145.69 135.769 147.387 137.73 149.48 137.73Z" fill="white"/>
<path d="M138.06 138.64C140.153 138.64 141.85 136.276 141.85 133.36C141.85 130.444 140.153 128.08 138.06 128.08C135.967 128.08 134.27 130.444 134.27 133.36C134.27 136.276 135.967 138.64 138.06 138.64Z" fill="white"/>
<path d="M141.8 151.17C144.2 149.42 146.1 147.17 148.66 145.58C148.211 144.623 147.439 143.855 146.48 143.41C139.35 139.95 138.34 143.95 136.16 148.41C134.76 151.28 134.16 154.1 134.82 156.21C137 154.38 139.45 152.89 141.8 151.17Z" fill="white"/>
<path d="M113.38 123.31C113.38 123.31 97.93 127 87 118.51H86.64C75.73 126.98 60.28 123.31 60.28 123.31" fill="white"/>
<path d="M86.7599 171.58C133.605 171.58 171.58 133.605 171.58 86.7599C171.58 39.9151 133.605 1.93994 86.7599 1.93994C39.9151 1.93994 1.93994 39.9151 1.93994 86.7599C1.93994 133.605 39.9151 171.58 86.7599 171.58Z" stroke="#6F5F5E" stroke-width="3.87" stroke-linecap="round" stroke-linejoin="round"/>
<path d="M14.9999 86.7999C14.9999 86.7999 8.09989 51.0499 32.5199 80.9999C32.5199 80.9999 59.1199 68.9999 73.1399 68.5099L84.1399 76.2199L85.5699 83.6999H89.9999L90.9999 77.2099L101 68.5099L141.23 80.9999C141.23 80.9999 164.23 50.5599 159.13 86.8199C159.13 86.8199 149.84 126.74 102.57 92.0099C103.88 92.9199 86.7899 123.33 71.3499 92.5799C71.2799 93.9999 26.3399 126.51 14.9999 86.7999Z" fill="#6F5F5E" stroke="#6F5F5E" stroke-width="2" stroke-linejoin="round"/>
<path d="M87.06 66.3C81.13 66.3 63.7201 70.68 63.7201 70.68C44.1501 33 29.4901 76.25 32.5201 81C10.6901 50.46 12.42 83.69 15 86.8C7.09005 76.63 2.55005 82.86 2.55005 82.86" stroke="#6F5F5E" stroke-width="3" stroke-linejoin="round"/>
<path d="M171.58 82.8599C171.58 82.8599 167 76.6299 159.13 86.7999C161.71 83.6899 163.44 50.4599 141.6 80.9799C144.6 76.2499 129.98 32.9799 110.4 70.6799C110.4 70.6799 93.0001 66.2999 87.0601 66.2999" stroke="#6F5F5E" stroke-width="3" stroke-linejoin="round"/>
<path d="M159.13 86.7999C159.13 86.7999 157.05 103 144.13 106.39C118.31 113.19 105.79 91.7099 101.87 95.0999C99.87 96.8199 102.62 105.64 88.25 107.52H86.43C72.06 105.64 74.79 96.8199 72.81 95.0999C68.89 91.7099 56.37 113.19 30.55 106.39C17.67 103 15 86.7999 15 86.7999" stroke="#6F5F5E" stroke-width="2.99" stroke-linejoin="round"/>
<path d="M32.5201 81C30.2301 81.8 48.8701 72.38 63.7201 70.7" stroke="#6F5F5E" stroke-width="3" stroke-linejoin="round"/>
<path d="M141.23 81C143.52 81.8 124.88 72.38 110.03 70.7" stroke="#6F5F5E" stroke-width="3" stroke-linejoin="round"/>
<path d="M73.1399 68.49C77.7979 70.2812 81.8925 73.2849 84.9999 77.19L85.9999 83.68C87.4168 83.1984 88.953 83.1984 90.3699 83.68" stroke="#6F5F5E" stroke-width="3" stroke-linejoin="round"/>
<path d="M102.57 68.71C102.57 68.71 96.6198 70.41 90.9698 77.19L89.9698 83.68C88.5497 83.1976 87.01 83.1976 85.5898 83.68" stroke="#6F5F5E" stroke-width="3" stroke-linejoin="round"/>
<path d="M45.9299 87.4699C45.9299 87.4699 57.7899 98.5299 67.9299 83.6799" stroke="#F6FEFF" stroke-width="3" stroke-linecap="round" stroke-linejoin="round"/>
<path d="M129.64 87.4699C129.64 87.4699 117.78 98.5299 107.64 83.6799" stroke="#F6FEFF" stroke-width="3" stroke-linecap="round" stroke-linejoin="round"/>
<path d="M16.85 134.63C16.25 133.06 21.18 119.92 30.78 120.32C34.6402 120.47 38.3119 122.028 41.1027 124.699C43.8936 127.37 45.6106 130.97 45.93 134.82C46.41 140.82 50.73 162.82 53.18 164.56" stroke="#6F5F5E" stroke-width="3" stroke-linecap="round" stroke-linejoin="round"/>
<path d="M48 136.51C48 136.51 62 137.45 69.9 148.75C69.9 148.75 69.34 123.15 87.03 145.36" stroke="#6F5F5E" stroke-width="3" stroke-linecap="round" stroke-linejoin="round"/>
<path d="M157.65 134.63C158.25 133.06 153.32 119.92 143.72 120.32C139.86 120.47 136.188 122.028 133.397 124.699C130.606 127.37 128.889 130.97 128.57 134.82C128.09 140.82 123.77 162.82 121.32 164.56" stroke="#6F5F5E" stroke-width="3" stroke-linecap="round" stroke-linejoin="round"/>
<path d="M126.48 136.51C126.48 136.51 112.48 137.45 104.57 148.75C104.57 148.75 105.13 123.15 87.4399 145.36" stroke="#6F5F5E" stroke-width="3" stroke-linecap="round" stroke-linejoin="round"/>
<path d="M24.6999 137.19C26.7931 137.19 28.4899 135.229 28.4899 132.81C28.4899 130.391 26.7931 128.43 24.6999 128.43C22.6068 128.43 20.9099 130.391 20.9099 132.81C20.9099 135.229 22.6068 137.19 24.6999 137.19Z" fill="#6F5F5E" stroke="#6F5F5E" stroke-width="2" stroke-linecap="round" stroke-linejoin="round"/>
<path d="M36.1198 138.1C38.213 138.1 39.9098 135.736 39.9098 132.82C39.9098 129.904 38.213 127.54 36.1198 127.54C34.0267 127.54 32.3298 129.904 32.3298 132.82C32.3298 135.736 34.0267 138.1 36.1198 138.1Z" fill="#6F5F5E" stroke="#6F5F5E" stroke-width="2" stroke-linecap="round" stroke-linejoin="round"/>
<path d="M26.8499 146.67C29.5299 147.91 30.7599 150.39 32.8499 152.67C33.7684 153.405 34.7764 154.019 35.8499 154.5C36.9468 155.091 37.9564 155.831 38.8499 156.7C40.1799 154.54 39.6399 151.24 37.9999 147.86C35.8199 143.37 34.7999 139.36 27.6699 142.86C26.6029 143.355 25.7732 144.249 25.3599 145.35C25.9425 145.682 26.4498 146.132 26.8499 146.67V146.67Z" fill="#6F5F5E" stroke="#6F5F5E" stroke-width="2" stroke-linecap="round" stroke-linejoin="round"/>
<path d="M149.8 137.19C151.893 137.19 153.59 135.229 153.59 132.81C153.59 130.391 151.893 128.43 149.8 128.43C147.707 128.43 146.01 130.391 146.01 132.81C146.01 135.229 147.707 137.19 149.8 137.19Z" fill="#6F5F5E" stroke="#6F5F5E" stroke-width="2" stroke-linecap="round" stroke-linejoin="round"/>
<path d="M138.38 138.1C140.473 138.1 142.17 135.736 142.17 132.82C142.17 129.904 140.473 127.54 138.38 127.54C136.287 127.54 134.59 129.904 134.59 132.82C134.59 135.736 136.287 138.1 138.38 138.1Z" fill="#6F5F5E" stroke="#6F5F5E" stroke-width="2" stroke-linecap="round" stroke-linejoin="round"/>
<path d="M149 145C148.556 144.046 147.792 143.279 146.84 142.83C139.71 139.36 138.7 143.37 136.52 147.83C134.85 151.26 134.31 154.61 135.73 156.77C137.09 155.72 138.47 154.69 139.85 153.66C140.62 152.99 141.43 152.34 142.26 151.66C143.43 150.76 144.67 149.87 145.87 148.93C146.781 147.52 147.83 146.204 149 145V145Z" fill="#6F5F5E" stroke="#6F5F5E" stroke-width="2" stroke-linecap="round" stroke-linejoin="round"/>
<path d="M113.7 122.77C113.7 122.77 98.2499 126.44 87.3399 117.97H86.9999C76.0899 126.44 60.6399 122.77 60.6399 122.77" stroke="#6F5F5E" stroke-width="3" stroke-linecap="round" stroke-linejoin="round"/>
<path d="M75.3 29.3099L71.11 36.8199L71.63 45.4099L64.12 41.2099L55.53 41.7299L59.73 34.2199L59.2 25.6399L66.71 29.8299L75.3 29.3099Z" fill="#F6FEFF"/>
<path d="M125.74 36.6899L113.1 40.3799C112.984 40.4137 112.88 40.4795 112.8 40.5699L104.15 50.4999C104.074 50.5847 103.977 50.6479 103.869 50.6828C103.761 50.7178 103.646 50.7234 103.535 50.6989C103.424 50.6745 103.321 50.621 103.238 50.5438C103.154 50.4666 103.093 50.3686 103.06 50.2599L99.3699 37.6199C99.3383 37.503 99.272 37.3984 99.1799 37.3199L89.2499 28.6699C89.1651 28.5943 89.1019 28.4974 89.067 28.3893C89.032 28.2811 89.0264 28.1657 89.0509 28.0547C89.0753 27.9437 89.1288 27.8412 89.206 27.7578C89.2832 27.6743 89.3811 27.6129 89.4899 27.5799L102.13 23.8899C102.245 23.8547 102.349 23.7891 102.43 23.6999L111.08 13.7699C111.156 13.6851 111.252 13.622 111.361 13.587C111.469 13.552 111.584 13.5464 111.695 13.5709C111.806 13.5953 111.909 13.6489 111.992 13.726C112.075 13.8032 112.137 13.9012 112.17 14.0099L115.86 26.6499C115.897 26.7665 115.967 26.8704 116.06 26.9499L126 35.5999C126.084 35.6769 126.147 35.7753 126.181 35.8846C126.214 35.9939 126.218 36.1103 126.192 36.2216C126.165 36.3329 126.109 36.4351 126.03 36.5174C125.95 36.5998 125.85 36.6594 125.74 36.6899V36.6899Z" fill="#F6FEFF"/>
<path d="M81.44 20.41C83.7375 20.41 85.6 18.5475 85.6 16.25C85.6 13.9525 83.7375 12.09 81.44 12.09C79.1425 12.09 77.28 13.9525 77.28 16.25C77.28 18.5475 79.1425 20.41 81.44 20.41Z" fill="#F6FEFF"/>
<path d="M214.12 89.4V107.68C214.12 109.78 215.58 110.3 215.58 111.76V111.85C215.58 113.44 212.87 113.85 209.78 113.85C206.69 113.85 203.93 113.42 203.93 111.85V111.76C203.93 110.3 205.39 109.76 205.39 107.68V89.62C202.81 96.15 198.77 106.17 198.04 107.94C197.39 109.53 196.66 109.94 195.46 109.94C194.46 109.94 193.35 109.64 192.46 107.74C191.86 106.33 187.73 96.95 185.58 92.09V107.66C185.58 109.76 187.47 110.28 187.47 111.74V111.83C187.47 113.29 185.8 113.83 183.86 113.83C181.92 113.83 180.29 113.27 180.29 111.83V111.74C180.29 110.28 182.19 109.74 182.19 107.66V89.66C182.19 87.56 180.55 87.04 180.55 85.58V85.49C180.55 83.9 182.4 83.49 184.72 83.49C190.72 83.49 191.13 84.87 192.03 86.89C192.63 88.31 195.77 95.75 197.58 100.09C197.58 100.09 202.58 87.79 203.21 86.33C204.11 84.33 205.36 83.49 209.75 83.49C212.84 83.49 215.55 83.66 215.55 85.26V85.34C215.58 86.82 214.12 87.34 214.12 89.4Z" fill="#6F5F5E"/>
<path d="M229.56 111.76V111.85C229.56 113.44 226.89 113.85 223.75 113.85C220.61 113.85 217.95 113.42 217.95 111.85V111.76C217.95 110.3 219.37 109.76 219.37 107.68V101.44C219.37 99.38 217.95 98.86 217.95 97.44V97.35C217.95 95.76 219.63 94.65 222.95 93.35C225.74 92.35 228.15 92.23 228.15 94.72V107.72C228.14 109.78 229.56 110.3 229.56 111.76ZM218.77 86.09C218.77 83.21 221.04 81.58 223.77 81.58C226.5 81.58 228.77 83.21 228.77 86.09C228.77 88.97 226.45 90.61 223.77 90.61C221.09 90.61 218.77 89 218.77 86.09Z" fill="#6F5F5E"/>
<path d="M256.6 111.76V111.85C256.6 113.44 253.9 113.85 250.76 113.85C247.62 113.85 244.95 113.42 244.95 111.85V111.76C244.95 110.3 246.41 109.76 246.41 107.68V100.88C246.41 97.9599 245.55 96.8799 244.05 96.8799C242.76 96.8799 241.73 97.99 241.68 100.62V107.67C241.68 109.77 243.15 110.29 243.15 111.75V111.84C243.15 113.43 240.44 113.84 237.3 113.84C234.16 113.84 231.49 113.41 231.49 111.84V111.75C231.49 110.29 232.95 109.75 232.95 107.67V101.43C232.95 99.3699 231.49 98.8499 231.49 97.4299V97.3399C231.49 95.7499 233.17 94.6399 236.49 93.3399C239.33 92.3399 241.13 92.2599 241.13 94.7099V95.9999C241.651 95.016 242.423 94.1876 243.368 93.5992C244.313 93.0107 245.397 92.6832 246.51 92.65C252.36 92.39 255.15 96.2199 255.15 100.99V107.66C255.14 109.78 256.6 110.3 256.6 111.76Z" fill="#6F5F5E"/>
<path d="M283.87 110.13V110.22C283.87 111.81 282.7 113.35 279.61 114C277.07 114.56 274.84 113.74 274.32 111.76C274.253 111.594 274.196 111.423 274.15 111.25C273.45 112.16 272.55 112.896 271.52 113.403C270.49 113.909 269.358 114.172 268.21 114.17C262.28 114.17 258.11 110.04 258.11 103.42C258.11 96.8 262.58 92.67 268.47 92.67C270.064 92.6199 271.632 93.0864 272.94 94V90C272.94 87.94 271.52 87.42 271.52 86V85.91C271.52 84.32 273.2 83.21 276.52 81.91C279.32 80.91 281.73 80.79 281.73 83.28V106C281.72 108.15 283.87 108.67 283.87 110.13ZM273.16 103.42C273.16 99.59 272.26 96.42 270.16 96.42C268.31 96.42 267.11 98.78 267.11 103.42C267.11 108.06 268.31 110.42 270.16 110.42C272.26 110.43 273.16 107.29 273.16 103.42Z" fill="#6F5F5E"/>
<path d="M308 92.76H307.91C304.99 92.76 304.6 87.04 300.61 87.04H298.11C296.65 87.04 295.96 87.73 295.96 89.83V97.7H299.96C302.07 97.7 302.03 94.48 303.49 94.48H303.57C304.86 94.48 305.04 96.28 305.04 99.42C305.04 102.56 304.86 104.42 303.57 104.42H303.49C302.03 104.42 302.07 101.19 299.96 101.19H295.96V108C295.96 109.8 297.72 110.45 297.72 112.08C297.72 113.62 295.4 113.84 291.62 113.84C288.48 113.84 285.77 113.67 285.77 112.08C285.77 110.62 287.23 110.08 287.23 108V89.83C287.23 87.73 285.77 87.21 285.77 85.75C285.77 84.11 287.62 83.68 289.94 83.68H301.94C304.22 83.68 304.78 82.95 306.24 82.95C307.49 82.95 308.05 83.55 308.31 84.95C308.61 86.5 309.08 89.25 309.25 90.62C309.42 91.99 308.93 92.76 308 92.76Z" fill="#6F5F5E"/>
<path d="M334.09 110.13V110.22C334.09 111.81 332.67 113.35 329.57 114C327.04 114.56 325.19 113.7 324.57 111.76C324.461 111.433 324.378 111.099 324.32 110.76C323.761 111.837 322.903 112.731 321.85 113.334C320.797 113.936 319.592 114.223 318.38 114.16C312.53 114.16 309.78 110.33 309.78 105.56V100.83C309.78 98.7199 308.32 98.2099 308.32 96.7499V96.6599C308.32 95.0699 309.52 93.7799 313.09 93.0099C316.02 92.3599 318.51 92.4499 318.51 94.9399V105.94C318.51 108.86 319.33 109.94 320.83 109.94C322.17 109.94 323.2 108.86 323.24 106.24V100.82C323.24 98.7099 321.78 98.1999 321.78 96.7399V96.6499C321.78 95.0599 322.98 93.7699 326.55 92.9999C329.48 92.3499 331.97 92.4399 331.97 94.9299V106C331.94 108.15 334.09 108.67 334.09 110.13Z" fill="#6F5F5E"/>
<path d="M346.77 111.76V111.85C346.77 113.44 344.11 113.85 340.97 113.85C337.83 113.85 335.16 113.42 335.16 111.85V111.76C335.16 110.3 336.58 109.76 336.58 107.68V90C336.58 87.94 335.16 87.42 335.16 86V85.91C335.16 84.32 336.84 83.21 340.16 81.91C342.96 80.91 345.36 80.79 345.36 83.28V107.71C345.35 109.78 346.77 110.3 346.77 111.76Z" fill="#6F5F5E"/>
<path d="M359.89 111.76V111.85C359.89 113.44 357.22 113.85 354.08 113.85C350.94 113.85 348.28 113.42 348.28 111.85V111.76C348.28 110.3 349.7 109.76 349.7 107.68V90C349.7 87.94 348.28 87.42 348.28 86V85.91C348.28 84.32 349.96 83.21 353.28 81.91C356.07 80.91 358.48 80.79 358.48 83.28V107.71C358.47 109.78 359.89 110.3 359.89 111.76Z" fill="#6F5F5E"/>
</g>
<defs>
<clipPath id="clip0_2_1662">
<rect width="359.89" height="173.51" fill="white"/>
</clipPath>
</defs>
</svg>
