<svg width="230" height="220" viewBox="0 0 230 220" fill="none" xmlns="http://www.w3.org/2000/svg">
<path d="M113.23 217.29C160.075 217.29 198.05 179.315 198.05 132.47C198.05 85.6251 160.075 47.6499 113.23 47.6499C66.3851 47.6499 28.4099 85.6251 28.4099 132.47C28.4099 179.315 66.3851 217.29 113.23 217.29Z" fill="#6F5F5E" stroke="#6F5F5E" stroke-width="3.87" stroke-linecap="round" stroke-linejoin="round"/>
<path d="M193.69 126.17C191.61 126.63 188.79 128.54 185.28 133.05C187.86 129.94 189.6 96.7099 167.76 127.23C170.76 122.5 156.14 79.2299 136.56 116.93C136.56 116.93 119.16 112.55 113.22 112.55C107.28 112.55 89.8799 116.93 89.8799 116.93C70.2999 79.2299 55.6399 122.5 58.6799 127.23C36.8399 96.7099 38.5699 129.94 41.1599 133.05C37.4399 128.27 34.4499 126.4 32.3399 126.05C32.3415 126.436 32.3047 126.821 32.2299 127.2C31.8995 129.121 31.7988 131.075 31.9299 133.02C32.4199 134.25 32.9299 135.51 33.4499 136.79H191.52C191.888 134.27 192.658 131.826 193.8 129.55C193.671 128.428 193.634 127.298 193.69 126.17V126.17Z" fill="white" stroke="white" stroke-width="9" stroke-miterlimit="10"/>
<path d="M185.28 133.05C185.28 133.05 183.2 149.26 170.33 152.65C144.51 159.44 131.99 137.96 128.07 141.35C126.07 143.07 128.82 151.89 114.45 153.78H112.58C98.22 151.89 101 143.07 99 141.35C95.09 137.96 82.56 159.44 56.74 152.65C43.87 149.26 41.2 133.05 41.2 133.05" fill="white"/>
<path d="M185.28 133.05C185.28 133.05 183.2 149.26 170.33 152.65C144.51 159.44 131.99 137.96 128.07 141.35C126.07 143.07 128.82 151.89 114.45 153.78H112.58C98.22 151.89 101 143.07 99 141.35C95.09 137.96 82.56 159.44 56.74 152.65C43.87 149.26 41.2 133.05 41.2 133.05" stroke="white" stroke-width="9" stroke-miterlimit="10"/>
<path d="M58.68 127.23C56.38 128.04 75.03 118.61 89.88 116.93Z" fill="white"/>
<path d="M58.68 127.23C56.38 128.04 75.03 118.61 89.88 116.93" stroke="white" stroke-width="9" stroke-miterlimit="10"/>
<path d="M167.38 127.23C169.68 128.04 151.03 118.61 136.18 116.93Z" fill="white"/>
<path d="M167.38 127.23C169.68 128.04 151.03 118.61 136.18 116.93" stroke="white" stroke-width="9" stroke-miterlimit="10"/>
<path d="M99.2898 114.75C103.961 116.532 108.07 119.533 111.19 123.44L112.19 129.94C113.609 129.452 115.151 129.452 116.57 129.94" fill="white"/>
<path d="M99.2898 114.75C103.961 116.532 108.07 119.533 111.19 123.44L112.19 129.94C113.609 129.452 115.151 129.452 116.57 129.94" stroke="white" stroke-width="9" stroke-miterlimit="10"/>
<path d="M128.72 115C128.72 115 122.72 116.7 117.12 123.47L116.12 129.97C114.701 129.482 113.159 129.482 111.74 129.97" fill="white"/>
<path d="M128.72 115C128.72 115 122.72 116.7 117.12 123.47L116.12 129.97C114.701 129.482 113.159 129.482 111.74 129.97" stroke="white" stroke-width="9" stroke-miterlimit="10"/>
<path d="M72.0898 133.73C72.0898 133.73 83.9498 144.78 94.0898 129.94Z" fill="white"/>
<path d="M72.0898 133.73C72.0898 133.73 83.9498 144.78 94.0898 129.94" stroke="white" stroke-width="9" stroke-miterlimit="10"/>
<path d="M155.79 133.73C155.79 133.73 143.94 144.78 133.79 129.94Z" fill="white"/>
<path d="M155.79 133.73C155.79 133.73 143.94 144.78 133.79 129.94" stroke="white" stroke-width="9" stroke-miterlimit="10"/>
<path d="M42.9999 180.88C42.3999 179.31 47.3299 166.18 56.9299 166.58C60.7892 166.728 64.4608 168.283 67.2518 170.953C70.0429 173.622 71.7603 177.221 72.0799 181.07C72.5599 187.07 76.8799 209.12 79.3299 210.81" fill="white"/>
<path d="M42.9999 180.88C42.3999 179.31 47.3299 166.18 56.9299 166.58C60.7892 166.728 64.4608 168.283 67.2518 170.953C70.0429 173.622 71.7603 177.221 72.0799 181.07C72.5599 187.07 76.8799 209.12 79.3299 210.81" stroke="white" stroke-width="3" stroke-miterlimit="10"/>
<path d="M74.1799 182.76C74.1799 182.76 88.1799 183.7 96.0899 195C96.0899 195 95.5199 169.4 113.22 191.61" fill="white"/>
<path d="M74.1799 182.76C74.1799 182.76 88.1799 183.7 96.0899 195C96.0899 195 95.5199 169.4 113.22 191.61" stroke="white" stroke-width="9" stroke-miterlimit="10"/>
<path d="M183.81 180.88C184.4 179.31 179.48 166.18 169.88 166.58C166.02 166.728 162.347 168.283 159.554 170.952C156.761 173.621 155.042 177.22 154.72 181.07C154.24 187.07 149.92 209.12 147.48 210.81" fill="white"/>
<path d="M183.81 180.88C184.4 179.31 179.48 166.18 169.88 166.58C166.02 166.728 162.347 168.283 159.554 170.952C156.761 173.621 155.042 177.22 154.72 181.07C154.24 187.07 149.92 209.12 147.48 210.81" stroke="white" stroke-width="3" stroke-miterlimit="10"/>
<path d="M152.63 182.76C152.63 182.76 138.63 183.7 130.72 195C130.72 195 131.29 169.4 113.59 191.61" fill="white"/>
<path d="M152.63 182.76C152.63 182.76 138.63 183.7 130.72 195C130.72 195 131.29 169.4 113.59 191.61" stroke="white" stroke-width="9" stroke-miterlimit="10"/>
<path d="M50.8598 183.44C52.953 183.44 54.6498 181.479 54.6498 179.06C54.6498 176.641 52.953 174.68 50.8598 174.68C48.7667 174.68 47.0698 176.641 47.0698 179.06C47.0698 181.479 48.7667 183.44 50.8598 183.44Z" fill="white"/>
<path d="M62.28 184.35C64.3731 184.35 66.07 181.986 66.07 179.07C66.07 176.154 64.3731 173.79 62.28 173.79C60.1868 173.79 58.49 176.154 58.49 179.07C58.49 181.986 60.1868 184.35 62.28 184.35Z" fill="white" stroke="white" stroke-width="9" stroke-miterlimit="10"/>
<path d="M64.1798 194.15C61.9998 189.66 60.9898 185.66 53.8598 189.15C53.1941 189.456 52.6135 189.92 52.1689 190.502C51.7243 191.085 51.4294 191.767 51.3098 192.49C51.6198 192.67 51.9498 192.83 52.2598 193.01C53.8602 193.761 55.384 194.665 56.8098 195.71C59.7656 197.826 62.6032 200.103 65.3098 202.53C66.2898 200.35 65.6998 197.28 64.1798 194.15Z" fill="white"/>
<path d="M175.96 183.44C178.053 183.44 179.75 181.479 179.75 179.06C179.75 176.641 178.053 174.68 175.96 174.68C173.867 174.68 172.17 176.641 172.17 179.06C172.17 181.479 173.867 183.44 175.96 183.44Z" fill="white" stroke="white" stroke-width="9" stroke-miterlimit="10"/>
<path d="M164.53 184.35C166.623 184.35 168.32 181.986 168.32 179.07C168.32 176.154 166.623 173.79 164.53 173.79C162.437 173.79 160.74 176.154 160.74 179.07C160.74 181.986 162.437 184.35 164.53 184.35Z" fill="white" stroke="white" stroke-width="9" stroke-miterlimit="10"/>
<path d="M167.47 199.31C169.97 197.31 171.98 193.71 175.01 191.65L175.23 191.51C174.805 190.45 173.988 189.595 172.95 189.12C165.82 185.66 164.81 189.66 162.63 194.12C160.82 197.84 160.34 201.47 162.22 203.58C163.67 202 165.64 200.79 167.47 199.31Z" fill="white"/>
<path d="M139.85 169C139.85 169 124.4 172.67 113.49 164.2H113.13C102.22 172.67 86.77 169 86.77 169" fill="white"/>
<path d="M139.85 169C139.85 169 124.4 172.67 113.49 164.2H113.13C102.22 172.67 86.77 169 86.77 169" stroke="white" stroke-width="9" stroke-miterlimit="10"/>
<path d="M197.74 129.12C197.68 125.85 193.19 122.88 185.28 133.05C187.86 129.94 189.6 96.7099 167.76 127.23C170.76 122.5 156.14 79.2299 136.56 116.93C136.56 116.93 119.16 112.55 113.22 112.55C107.28 112.55 89.8799 116.93 89.8799 116.93C70.2999 79.2299 55.6399 122.5 58.6799 127.23C36.8399 96.7099 38.5699 129.94 41.1599 133.05C33.2499 122.88 28.6499 125.85 28.6999 129.12C29.1099 158.18 39.4199 179.93 54.7499 194.55C54.9885 194.736 55.2094 194.943 55.4099 195.17C103.45 239.94 199.32 216.08 197.74 129.12Z" fill="#F6FEFF"/>
<path d="M185.28 133.05C185.28 133.05 183.2 149.26 170.33 152.65C144.51 159.44 131.99 137.96 128.07 141.35C126.07 143.07 128.82 151.89 114.45 153.78H112.58C98.22 151.89 101 143.07 99 141.35C95.09 137.96 82.56 159.44 56.74 152.65C43.87 149.26 41.2 133.05 41.2 133.05" fill="white"/>
<path d="M58.68 127.23C56.38 128.04 75.03 118.61 89.88 116.93Z" fill="white"/>
<path d="M167.38 127.23C169.68 128.04 151.03 118.61 136.18 116.93Z" fill="white"/>
<path d="M99.2898 114.75C103.961 116.532 108.07 119.533 111.19 123.44L112.19 129.94C113.609 129.452 115.151 129.452 116.57 129.94" fill="white"/>
<path d="M128.72 115C128.72 115 122.72 116.7 117.12 123.47L116.12 129.97C114.701 129.482 113.159 129.482 111.74 129.97" fill="white"/>
<path d="M72.0898 133.73C72.0898 133.73 83.9498 144.78 94.0898 129.94Z" fill="white"/>
<path d="M155.79 133.73C155.79 133.73 143.94 144.78 133.79 129.94Z" fill="white"/>
<path d="M42.9999 180.88C42.3999 179.31 47.3299 166.18 56.9299 166.58C60.7892 166.728 64.4608 168.283 67.2518 170.953C70.0429 173.622 71.7603 177.221 72.0799 181.07C72.5599 187.07 76.8799 209.12 79.3299 210.81" fill="#F6FEFF"/>
<path d="M74.1799 182.76C74.1799 182.76 88.1799 183.7 96.0899 195C96.0899 195 95.5199 169.4 113.22 191.61" fill="white"/>
<path d="M183.81 180.88C184.4 179.31 179.48 166.18 169.88 166.58C166.02 166.728 162.347 168.283 159.554 170.952C156.761 173.621 155.042 177.22 154.72 181.07C154.24 187.07 149.92 209.12 147.48 210.81" fill="#F6FEFF"/>
<path d="M152.63 182.76C152.63 182.76 138.63 183.7 130.72 195C130.72 195 131.29 169.4 113.59 191.61" fill="white"/>
<path d="M50.8598 183.44C52.953 183.44 54.6498 181.479 54.6498 179.06C54.6498 176.641 52.953 174.68 50.8598 174.68C48.7667 174.68 47.0698 176.641 47.0698 179.06C47.0698 181.479 48.7667 183.44 50.8598 183.44Z" fill="white"/>
<path d="M62.28 184.35C64.3731 184.35 66.07 181.986 66.07 179.07C66.07 176.154 64.3731 173.79 62.28 173.79C60.1868 173.79 58.49 176.154 58.49 179.07C58.49 181.986 60.1868 184.35 62.28 184.35Z" fill="white"/>
<path d="M64.1799 194.15C61.9999 189.66 60.9899 185.66 53.8599 189.15C53.2729 189.423 52.7512 189.818 52.3303 190.31C51.9093 190.802 51.5989 191.378 51.4199 192C52.3013 192.583 53.122 193.253 53.8699 194C54.0299 194.11 54.1999 194.2 54.3599 194.3C55.2506 194.852 55.949 195.666 56.3599 196.63C56.6899 197 57.0099 197.36 57.3599 197.72C59.5499 200.03 62.4999 201.29 64.8599 203.4C66.4399 201.22 65.9199 197.73 64.1799 194.15Z" fill="white"/>
<path d="M175.96 183.44C178.053 183.44 179.75 181.479 179.75 179.06C179.75 176.641 178.053 174.68 175.96 174.68C173.867 174.68 172.17 176.641 172.17 179.06C172.17 181.479 173.867 183.44 175.96 183.44Z" fill="white"/>
<path d="M164.53 184.35C166.623 184.35 168.32 181.986 168.32 179.07C168.32 176.154 166.623 173.79 164.53 173.79C162.437 173.79 160.74 176.154 160.74 179.07C160.74 181.986 162.437 184.35 164.53 184.35Z" fill="white"/>
<path d="M168.28 196.89C170.68 195.13 172.57 192.89 175.13 191.29C174.684 190.331 173.911 189.562 172.95 189.12C165.82 185.66 164.81 189.66 162.63 194.12C161.23 196.99 160.63 199.81 161.29 201.92C163.49 200.09 165.92 198.61 168.28 196.89Z" fill="white"/>
<path d="M139.85 169C139.85 169 124.4 172.67 113.49 164.2H113.13C102.22 172.67 86.77 169 86.77 169" fill="white"/>
<path d="M113.23 217.29C160.075 217.29 198.05 179.315 198.05 132.47C198.05 85.6251 160.075 47.6499 113.23 47.6499C66.3851 47.6499 28.4099 85.6251 28.4099 132.47C28.4099 179.315 66.3851 217.29 113.23 217.29Z" stroke="#6F5F5E" stroke-width="3.87" stroke-linecap="round" stroke-linejoin="round"/>
<path d="M41.4699 132.51C41.4699 132.51 34.5699 96.76 58.9999 126.69C58.9999 126.69 85.5899 114.69 99.6099 114.2L110.61 121.91L112.04 129.4H116.41L117.41 122.9L127.41 114.2L167.65 126.69C167.65 126.69 190.65 96.25 185.55 132.51C185.55 132.51 176.26 172.43 128.99 137.7C130.3 138.61 113.22 169.02 97.7699 138.27C97.7599 139.71 52.8099 172.23 41.4699 132.51Z" fill="#6F5F5E" stroke="#6F5F5E" stroke-width="2" stroke-linejoin="round"/>
<path d="M113.54 112C107.6 112 90.19 116.38 90.19 116.38C70.62 78.69 56 122 59 126.69C37.16 96.17 38.89 129.4 41.47 132.51C33.57 122.34 29 128.58 29 128.58" stroke="#6F5F5E" stroke-width="3" stroke-linejoin="round"/>
<path d="M198.05 128.58C198.05 128.58 193.5 122.34 185.6 132.51C188.18 129.4 189.91 96.17 168.08 126.69C171.08 121.96 156.45 78.69 136.88 116.39C136.88 116.39 119.47 112.01 113.54 112.01" stroke="#6F5F5E" stroke-width="3" stroke-linejoin="round"/>
<path d="M185.6 132.51C185.6 132.51 183.52 148.72 170.65 152.1C144.83 158.9 132.31 137.42 128.39 140.81C126.39 142.53 129.13 151.35 114.77 153.23H112.9C98.5299 151.35 101.27 142.53 99.2799 140.81C95.3599 137.42 82.84 158.9 57 152.1C44.13 148.72 41.45 132.51 41.45 132.51" stroke="#6F5F5E" stroke-width="2.99" stroke-linejoin="round"/>
<path d="M58.9998 126.69C56.6998 127.5 75.3498 118.07 90.1898 116.39" stroke="#6F5F5E" stroke-width="3" stroke-linejoin="round"/>
<path d="M167.7 126.69C169.99 127.5 151.35 118.07 136.5 116.39" stroke="#6F5F5E" stroke-width="3" stroke-linejoin="round"/>
<path d="M99.6099 114.2C104.282 115.985 108.391 118.989 111.51 122.9L112.51 129.4C113.929 128.912 115.471 128.912 116.89 129.4" stroke="#6F5F5E" stroke-width="3" stroke-linejoin="round"/>
<path d="M129 114.42C129 114.42 123.05 116.12 117.4 122.9L116.4 129.4C114.984 128.912 113.446 128.912 112.03 129.4" stroke="#6F5F5E" stroke-width="3" stroke-linejoin="round"/>
<path d="M72.4099 133.18C72.4099 133.18 84.2699 144.24 94.4099 129.4" stroke="#F6FEFF" stroke-width="3" stroke-linecap="round" stroke-linejoin="round"/>
<path d="M156.11 133.18C156.11 133.18 144.25 144.24 134.11 129.4" stroke="#F6FEFF" stroke-width="3" stroke-linecap="round" stroke-linejoin="round"/>
<path d="M43.32 180.34C42.73 178.77 47.65 165.64 57.25 166.03C61.1112 166.18 64.7842 167.737 67.5767 170.408C70.3691 173.079 72.0882 176.679 72.41 180.53C72.89 186.53 77.21 208.58 79.65 210.27" stroke="#6F5F5E" stroke-width="3" stroke-linecap="round" stroke-linejoin="round"/>
<path d="M74.5 182.22C74.5 182.22 88.5 183.16 96.41 194.46C96.41 194.46 95.84 168.86 113.54 191.07" stroke="#6F5F5E" stroke-width="3" stroke-linecap="round" stroke-linejoin="round"/>
<path d="M184.12 180.34C184.72 178.77 179.79 165.64 170.19 166.03C166.323 166.171 162.641 167.724 159.842 170.396C157.043 173.068 155.32 176.674 155 180.53C154.52 186.53 150.2 208.58 147.75 210.27" stroke="#6F5F5E" stroke-width="3" stroke-linecap="round" stroke-linejoin="round"/>
<path d="M153 182.22C153 182.22 139 183.16 131.09 194.46C131.09 194.46 131.66 168.86 113.96 191.07" stroke="#6F5F5E" stroke-width="3" stroke-linecap="round" stroke-linejoin="round"/>
<path d="M51.1699 182.9C53.263 182.9 54.9599 180.939 54.9599 178.52C54.9599 176.101 53.263 174.14 51.1699 174.14C49.0767 174.14 47.3799 176.101 47.3799 178.52C47.3799 180.939 49.0767 182.9 51.1699 182.9Z" fill="#6F5F5E" stroke="#6F5F5E" stroke-width="2" stroke-linecap="round" stroke-linejoin="round"/>
<path d="M62.5998 183.81C64.693 183.81 66.3898 181.446 66.3898 178.53C66.3898 175.614 64.693 173.25 62.5998 173.25C60.5067 173.25 58.8098 175.614 58.8098 178.53C58.8098 181.446 60.5067 183.81 62.5998 183.81Z" fill="#6F5F5E" stroke="#6F5F5E" stroke-width="2" stroke-linecap="round" stroke-linejoin="round"/>
<path d="M53.3298 192.38C56.0098 193.62 57.2298 196.1 59.3298 198.43C60.2527 199.156 61.26 199.767 62.3298 200.25C63.4224 200.848 64.4312 201.588 65.3298 202.45C66.6598 200.29 66.1198 196.99 64.4798 193.61C62.2998 189.12 61.2898 185.12 54.1598 188.61C53.6277 188.854 53.1489 189.2 52.7508 189.629C52.3527 190.058 52.0432 190.561 51.8398 191.11C52.4182 191.427 52.9253 191.859 53.3298 192.38V192.38Z" fill="#6F5F5E" stroke="#6F5F5E" stroke-width="2" stroke-linecap="round" stroke-linejoin="round"/>
<path d="M176.28 182.9C178.373 182.9 180.07 180.939 180.07 178.52C180.07 176.101 178.373 174.14 176.28 174.14C174.187 174.14 172.49 176.101 172.49 178.52C172.49 180.939 174.187 182.9 176.28 182.9Z" fill="#6F5F5E" stroke="#6F5F5E" stroke-width="2" stroke-linecap="round" stroke-linejoin="round"/>
<path d="M164.85 183.81C166.943 183.81 168.64 181.446 168.64 178.53C168.64 175.614 166.943 173.25 164.85 173.25C162.757 173.25 161.06 175.614 161.06 178.53C161.06 181.446 162.757 183.81 164.85 183.81Z" fill="#6F5F5E" stroke="#6F5F5E" stroke-width="2" stroke-linecap="round" stroke-linejoin="round"/>
<path d="M175.43 190.75C174.989 189.794 174.223 189.026 173.27 188.58C166.14 185.12 165.13 189.12 162.95 193.58C161.28 197.01 160.75 200.37 162.16 202.52C163.533 201.48 164.907 200.443 166.28 199.41C167.06 198.74 167.86 198.09 168.69 197.41C169.86 196.51 171.1 195.62 172.3 194.68C173.214 193.272 174.262 191.956 175.43 190.75V190.75Z" fill="#6F5F5E" stroke="#6F5F5E" stroke-width="2" stroke-linecap="round" stroke-linejoin="round"/>
<path d="M140.17 168.48C140.17 168.48 124.72 172.15 113.81 163.68H113.45C102.54 172.15 87.0898 168.48 87.0898 168.48" stroke="#6F5F5E" stroke-width="3" stroke-linecap="round" stroke-linejoin="round"/>
<path d="M101.77 75.02L97.58 82.53L98.1 91.12L90.59 86.92L82.01 87.45L86.2 79.94L85.68 71.35L93.19 75.54L101.77 75.02Z" fill="#F6FEFF"/>
<path d="M152.21 82.4L139.58 86.09C139.459 86.1248 139.351 86.1943 139.27 86.29L130.63 96.21C130.555 96.2974 130.457 96.3629 130.348 96.3995C130.238 96.436 130.121 96.4424 130.008 96.4178C129.896 96.3932 129.792 96.3386 129.707 96.2598C129.623 96.1809 129.562 96.0808 129.53 95.97L125.84 83.33C125.806 83.214 125.74 83.11 125.65 83.03L115.73 74.38C115.642 74.306 115.576 74.2093 115.539 74.1004C115.502 73.9916 115.495 73.8746 115.52 73.7624C115.545 73.6501 115.6 73.5467 115.679 73.4634C115.758 73.3802 115.859 73.3202 115.97 73.29L128.6 69.6C128.717 69.5683 128.821 69.5021 128.9 69.41L137.55 59.48C137.627 59.3956 137.724 59.3329 137.833 59.2982C137.942 59.2635 138.058 59.2581 138.169 59.2824C138.281 59.3067 138.384 59.36 138.468 59.4368C138.553 59.5136 138.615 59.6113 138.65 59.72L142.33 72.36C142.369 72.4759 142.438 72.5795 142.53 72.66L152.45 81.31C152.535 81.3856 152.598 81.4825 152.633 81.5906C152.668 81.6987 152.673 81.8142 152.649 81.9252C152.624 82.0362 152.571 82.1387 152.494 82.2221C152.417 82.3055 152.319 82.3669 152.21 82.4V82.4Z" fill="#F6FEFF"/>
<path d="M107.91 66.1199C110.208 66.1199 112.07 64.2574 112.07 61.9599C112.07 59.6624 110.208 57.7999 107.91 57.7999C105.612 57.7999 103.75 59.6624 103.75 61.9599C103.75 64.2574 105.612 66.1199 107.91 66.1199Z" fill="#F6FEFF"/>
<path d="M38.8799 31.1999L49.3899 46.1999C50.6099 47.9099 52.3899 47.3099 53.1999 48.5299V48.5999C54.0899 49.9299 51.6499 52.0799 48.7199 54.3699C45.7899 56.6599 43.0099 58.5899 41.9399 57.3699L41.8799 57.3099C40.8799 56.2199 41.9399 54.6099 40.5799 53.0099L28.8399 39.3199C30.0933 46.2258 31.78 53.0459 33.8899 59.7399C34.1707 60.3839 34.2407 61.1001 34.0898 61.7863C33.939 62.4724 33.575 63.0932 33.0499 63.5599C32.5588 64.174 31.9031 64.6356 31.1593 64.8906C30.4155 65.1456 29.6145 65.1835 28.8499 64.9999C22.7922 63.8727 16.6582 63.2042 10.4999 62.9999L23.0799 72.1999C24.7799 73.4199 26.6799 71.7199 27.8499 72.6199H27.9199C29.0699 73.5199 28.2199 75.5499 26.7999 77.6199C25.3799 79.6899 23.7999 81.1699 22.5399 80.3899H22.4599C21.2199 79.6099 22.1699 77.1899 20.4599 76.0199L5.47991 65.9999C3.72991 64.8199 1.84991 66.7599 0.61991 65.9999H0.54991C-0.80009 65.1499 0.48991 62.2899 2.71991 59.1599C8.51991 51.2099 10.1999 51.7799 12.6099 51.9399C17.7509 52.5603 22.8501 53.4886 27.8799 54.7199C27.6999 54.8199 24.2899 40.9099 24.2399 39.0599C23.9299 36.6599 24.7899 34.6199 30.1199 30.3999C33.8899 27.3999 37.4399 25.2799 38.3299 26.5999V26.6699C39.1899 27.8399 37.6799 29.5099 38.8799 31.1999Z" fill="#6F5F5E"/>
<path d="M67.8299 40.1899V40.2699C68.4999 41.7199 65.8299 43.4099 62.6099 45.1999C59.3899 46.9899 56.4899 48.3399 55.6099 47.0099V46.9299C54.8099 45.6999 56.0199 44.3299 54.9199 42.5399L51.6299 37.2299C50.5499 35.4599 48.6299 36.0499 47.8599 34.8199L47.8099 34.7499C46.9599 33.4199 48.2799 31.1699 51.7199 27.7499C54.6399 24.9099 57.7199 23.3499 58.7899 25.5999L64.4999 37.2299C65.4299 39.1399 67.1999 38.8599 67.8299 40.1899ZM42.8299 24.6299C41.2799 22.1999 43.3899 18.9099 47.1099 16.8699C50.8299 14.8299 54.7099 14.8099 55.9299 17.4199C57.1499 20.0299 54.8699 22.9099 51.4799 24.7799C48.0899 26.6499 44.3399 27.0599 42.7799 24.6299H42.8299Z" fill="#6F5F5E"/>
<path d="M98.4299 30.9999V31.0799C98.6499 32.6599 95.6099 33.5099 92.0599 34.2599C88.5099 35.0099 85.4199 35.4299 84.9799 33.8999C84.9776 33.8733 84.9776 33.8465 84.9799 33.8199C84.5799 32.4099 86.1399 31.4599 85.6199 29.4199C85.0399 27.2266 84.4633 25.0366 83.8899 22.8499C83.1499 20.0199 81.7599 19.2599 79.7999 19.8499C78.1299 20.3299 77.1399 21.8499 77.8899 24.3399C78.5999 26.5799 79.3199 28.8199 80.0299 31.0599C80.6799 33.0599 82.5099 33.0599 82.9299 34.4499V34.5299C83.3799 36.0599 80.4899 37.3499 77.0599 38.6099C73.6299 39.8699 70.6099 40.7599 69.9499 39.3099V39.2299C69.3399 37.8999 70.7599 36.7199 69.9499 34.7799C69.1399 32.8399 68.2899 30.9999 67.4699 28.9999C66.6499 26.9999 64.6699 27.3899 64.0699 26.0699L63.9999 25.9999C63.3499 24.5599 64.9499 22.5499 68.8099 19.7399C72.1399 17.3799 74.5799 16.5899 75.3199 18.9199C75.4399 19.2899 75.5699 19.6999 75.7199 20.1499C76.3799 17.8599 78.8099 15.7499 81.8699 14.8799C89.8099 12.6599 94.2999 15.9999 94.9999 20.6899L96.0799 27.2699C96.4199 29.3399 98.2299 29.5899 98.4299 30.9999Z" fill="#6F5F5E"/>
<path d="M130.67 29.4699V29.5499C130.43 31.1399 128.84 32.4199 125.23 32.6899C122.23 32.9499 119.78 32.0099 119.23 30.0099C119.16 29.837 119.1 29.66 119.05 29.4799C117.172 31.2974 114.664 32.3186 112.05 32.3299C105.32 32.4599 100.05 29.0999 99.05 22.5299C98.05 15.9599 103.75 10.9999 112 10.8299C114.136 10.7207 116.262 11.1943 118.15 12.1999L118.27 8.19995C118.34 6.12995 116.27 5.56995 116.33 4.10995V3.99995C116.33 2.42995 118.82 1.27995 123.87 0.359947C128.13 -0.390053 131.8 -5.29289e-05 131.47 2.46995C131.47 2.68995 128.61 25.0899 128.61 25.0899C128.38 27.1499 130.9 27.9999 130.67 29.4699ZM118.15 21.6199C118.29 17.7999 117.15 14.6199 114.39 14.6199C111.89 14.6199 110.39 17.0499 110.52 21.6199C110.65 26.1899 112.2 28.5599 114.38 28.6199C116.82 28.5699 118 25.4899 118.15 21.6199V21.6199Z" fill="#6F5F5E"/>
<path d="M165.5 21.4699H165.39C161.64 19.9099 163.26 14.3399 157.72 12.3899C156.57 11.9999 155.42 11.6199 154.27 11.2599C152.27 10.6399 151.08 11.0399 150.5 13.0599C149.773 15.5799 149.047 18.1033 148.32 20.6299C150.053 21.1233 151.773 21.6533 153.48 22.2199C156.15 23.1299 157.19 20.0799 159.09 20.7799L159.2 20.8299C160.87 21.4599 160.41 23.2399 159.2 26.1499C157.99 29.0599 157.2 30.6599 155.63 30.0699H155.53C153.8 29.4299 154.96 26.3999 152.35 25.5099C150.68 24.9599 149.01 24.4399 147.35 23.9599L145.46 30.5399C144.97 32.2699 146.82 33.4899 146.32 35.0499C145.85 36.5399 143.22 35.8999 138.96 34.8899C135.42 34.0599 132.36 33.3899 132.62 31.8199C132.86 30.3699 134.67 30.1699 135.07 28.0999C136.19 22.1599 137.307 16.2133 138.42 10.2599C138.82 8.18992 136.83 7.30992 137.07 5.86992C137.34 4.25992 140.07 4.27992 143.5 5.00992C149.356 6.22485 155.125 7.825 160.77 9.79992C163.97 10.9599 165.01 10.5999 167.06 11.4299C168.8 12.1499 169.33 13.0499 169.12 14.4299C168.91 16.0299 168.41 18.8199 168.06 20.1799C167.71 21.5399 166.66 21.9999 165.5 21.4699Z" fill="#6F5F5E"/>
<path d="M185.63 54.28V54.35C184.63 55.57 182.28 55.57 178.95 53.82C176.2 52.43 174.89 50.51 175.32 48.45C175.394 48.1104 175.49 47.7763 175.61 47.45C173.51 48.38 170.77 48.3 167.76 46.55C161.85 43.17 160.44 38.5 162.39 34.1L164.39 29.8C165.28 27.88 163.7 26.61 164.29 25.27V25.19C164.92 23.75 166.98 23.19 171.82 24.69C175.82 25.95 178.82 27.85 177.56 29.99C177.33 30.4 172.02 39.52 172.02 39.52C170.55 42.05 170.88 43.52 172.45 44.44C173.84 45.3 175.45 45.1 176.98 42.94L179.98 38.4C181.15 36.63 179.75 35.12 180.53 33.89V33.81C181.37 32.49 183.53 32.2 188.13 34.51C191.93 36.4 194.7 38.79 193.13 40.72L186.13 49.37C184.82 51 186.59 53.16 185.63 54.28Z" fill="#6F5F5E"/>
<path d="M195.89 66.7099L195.83 66.7599C194.62 67.7599 192.13 65.5599 189.39 62.8399C186.65 60.1199 184.49 57.6799 185.53 56.4699L185.59 56.3999C186.54 55.2899 188.22 56.0899 189.59 54.5199L201.42 41.3199C202.81 39.7799 201.54 37.9599 202.49 36.8599L202.55 36.7899C203.55 35.5999 206.3 36.3899 210.96 39.1799C214.88 41.5599 217.59 44.4799 215.73 46.1799C215.58 46.3299 197.67 62.6399 197.67 62.6399C196.16 63.9999 197 65.7399 195.89 66.7099Z" fill="#6F5F5E"/>
<path d="M206.1 80.3699H206.02C204.67 81.2099 202.46 78.4899 200.09 75.2599C197.72 72.0299 195.87 69.2599 197.09 68.1699L197.15 68.1099C198.27 67.1099 199.84 68.2499 201.47 66.9199L215.16 55.6699C216.77 54.3599 215.74 52.3099 216.85 51.3699L216.91 51.3099C218.11 50.3099 220.74 51.5399 225.03 55.1699C228.65 58.2599 230.98 61.6999 228.89 63.0499L208.49 76.4899C206.73 77.7099 207.34 79.5899 206.1 80.3699Z" fill="#6F5F5E"/>
</svg>
