<svg width="180" height="216" viewBox="0 0 180 216" fill="none" xmlns="http://www.w3.org/2000/svg">
<g clip-path="url(#clip0_2_1445)">
<path d="M90.4399 171.58C137.285 171.58 175.26 133.605 175.26 86.7599C175.26 39.9151 137.285 1.93994 90.4399 1.93994C43.5951 1.93994 5.61987 39.9151 5.61987 86.7599C5.61987 133.605 43.5951 171.58 90.4399 171.58Z" fill="#6F5F5E" stroke="#6F5F5E" stroke-width="3.87" stroke-linecap="round" stroke-linejoin="round"/>
<path d="M170.91 80.4499C168.83 80.9099 166.01 82.8299 162.5 87.3399C165.08 84.2299 166.81 50.9999 144.98 81.5199C147.98 76.7899 133.36 33.5199 113.78 71.2199C113.78 71.2199 96.3699 66.8399 90.4399 66.8399C84.5099 66.8399 67.0999 71.2199 67.0999 71.2199C47.4999 33.5199 32.8599 76.7899 35.8999 81.5199C14.0599 50.9999 15.7899 84.2299 18.3699 87.3399C14.6499 82.5499 11.6699 80.6899 9.55991 80.3399C9.5808 80.7409 9.5607 81.143 9.49991 81.5399C9.16957 83.4612 9.06886 85.4149 9.19991 87.3599C9.68991 88.5799 10.1999 89.8399 10.7199 91.1299H168.74C169.11 88.6075 169.88 86.1602 171.02 83.8799C170.888 82.7417 170.851 81.5943 170.91 80.4499V80.4499Z" fill="white" stroke="white" stroke-width="9" stroke-miterlimit="10"/>
<path d="M162.5 87.34C162.5 87.34 160.42 103.55 147.55 106.93C121.73 113.73 109.21 92.25 105.29 95.64C103.29 97.36 106.03 106.18 91.6699 108.06H89.7999C75.4399 106.18 78.1699 97.36 76.1799 95.64C72.2599 92.25 59.7399 113.73 33.9199 106.93C21.0499 103.55 18.3699 87.34 18.3699 87.34" fill="white"/>
<path d="M162.5 87.34C162.5 87.34 160.42 103.55 147.55 106.93C121.73 113.73 109.21 92.25 105.29 95.64C103.29 97.36 106.03 106.18 91.6699 108.06H89.7999C75.4399 106.18 78.1699 97.36 76.1799 95.64C72.2599 92.25 59.7399 113.73 33.9199 106.93C21.0499 103.55 18.3699 87.34 18.3699 87.34" stroke="white" stroke-width="9" stroke-miterlimit="10"/>
<path d="M35.9 81.52C33.6 82.32 52.25 72.9 67.1 71.22Z" fill="white"/>
<path d="M35.9 81.52C33.6 82.32 52.25 72.9 67.1 71.22" stroke="white" stroke-width="9" stroke-miterlimit="10"/>
<path d="M144.6 81.52C146.9 82.32 128.25 72.9 113.4 71.22Z" fill="white"/>
<path d="M144.6 81.52C146.9 82.32 128.25 72.9 113.4 71.22" stroke="white" stroke-width="9" stroke-miterlimit="10"/>
<path d="M76.5 69C81.1725 70.785 85.2816 73.7891 88.4 77.7L89.4 84.19C90.8202 83.7077 92.3598 83.7077 93.78 84.19" fill="white"/>
<path d="M76.5 69C81.1725 70.785 85.2816 73.7891 88.4 77.7L89.4 84.19C90.8202 83.7077 92.3598 83.7077 93.78 84.19" stroke="white" stroke-width="9" stroke-miterlimit="10"/>
<path d="M105.94 69.25C105.94 69.25 99.94 70.95 94.34 77.73L93.34 84.22C91.9198 83.7377 90.3801 83.7377 88.96 84.22" fill="white"/>
<path d="M105.94 69.25C105.94 69.25 99.94 70.95 94.34 77.73L93.34 84.22C91.9198 83.7377 90.3801 83.7377 88.96 84.22" stroke="white" stroke-width="9" stroke-miterlimit="10"/>
<path d="M49.3101 88C49.3101 88 61.1701 99.06 71.3101 84.21Z" fill="white"/>
<path d="M49.3101 88C49.3101 88 61.1701 99.06 71.3101 84.21" stroke="white" stroke-width="9" stroke-miterlimit="10"/>
<path d="M133.01 88C133.01 88 121.16 99.06 111.01 84.21Z" fill="white"/>
<path d="M133.01 88C133.01 88 121.16 99.06 111.01 84.21" stroke="white" stroke-width="9" stroke-miterlimit="10"/>
<path d="M20.2299 135.17C19.6299 133.6 24.5599 120.46 34.1599 120.86C38.02 121.01 41.6918 122.568 44.4826 125.239C47.2734 127.91 48.9905 131.51 49.3099 135.36C49.7899 141.36 54.1099 163.36 56.5599 165.1" fill="white"/>
<path d="M20.2299 135.17C19.6299 133.6 24.5599 120.46 34.1599 120.86C38.02 121.01 41.6918 122.568 44.4826 125.239C47.2734 127.91 48.9905 131.51 49.3099 135.36C49.7899 141.36 54.1099 163.36 56.5599 165.1" stroke="white" stroke-width="3" stroke-miterlimit="10"/>
<path d="M51.3999 137.05C51.3999 137.05 65.3999 137.99 73.3099 149.29C73.3099 149.29 72.7399 123.69 90.4399 145.9" fill="white"/>
<path d="M51.3999 137.05C51.3999 137.05 65.3999 137.99 73.3099 149.29C73.3099 149.29 72.7399 123.69 90.4399 145.9" stroke="white" stroke-width="9" stroke-miterlimit="10"/>
<path d="M161.03 135.17C161.62 133.6 156.7 120.46 147.1 120.86C143.239 121.01 139.566 122.567 136.773 125.238C133.981 127.909 132.262 131.509 131.94 135.36C131.46 141.36 127.14 163.36 124.7 165.1" fill="white"/>
<path d="M161.03 135.17C161.62 133.6 156.7 120.46 147.1 120.86C143.239 121.01 139.566 122.567 136.773 125.238C133.981 127.909 132.262 131.509 131.94 135.36C131.46 141.36 127.14 163.36 124.7 165.1" stroke="white" stroke-width="3" stroke-miterlimit="10"/>
<path d="M129.85 137.05C129.85 137.05 115.85 137.99 107.94 149.29C107.94 149.29 108.51 123.69 90.8101 145.9" fill="white"/>
<path d="M129.85 137.05C129.85 137.05 115.85 137.99 107.94 149.29C107.94 149.29 108.51 123.69 90.8101 145.9" stroke="white" stroke-width="9" stroke-miterlimit="10"/>
<path d="M28.07 137.73C30.1632 137.73 31.86 135.769 31.86 133.35C31.86 130.931 30.1632 128.97 28.07 128.97C25.9769 128.97 24.28 130.931 24.28 133.35C24.28 135.769 25.9769 137.73 28.07 137.73Z" fill="white"/>
<path d="M39.49 138.64C41.5831 138.64 43.2799 136.276 43.2799 133.36C43.2799 130.444 41.5831 128.08 39.49 128.08C37.3968 128.08 35.7 130.444 35.7 133.36C35.7 136.276 37.3968 138.64 39.49 138.64Z" fill="white" stroke="white" stroke-width="9" stroke-miterlimit="10"/>
<path d="M41.4 148.44C39.22 143.95 38.21 139.95 31.08 143.44C30.4139 143.741 29.831 144.2 29.3815 144.777C28.9321 145.353 28.6296 146.03 28.5 146.75C28.82 146.92 29.15 147.09 29.5 147.27C31.1004 148.021 32.6242 148.925 34.05 149.97C37.0105 152.08 39.8485 154.357 42.55 156.79C43.5 154.63 42.92 151.57 41.4 148.44Z" fill="white"/>
<path d="M153.17 137.73C155.263 137.73 156.96 135.769 156.96 133.35C156.96 130.931 155.263 128.97 153.17 128.97C151.077 128.97 149.38 130.931 149.38 133.35C149.38 135.769 151.077 137.73 153.17 137.73Z" fill="white" stroke="white" stroke-width="9" stroke-miterlimit="10"/>
<path d="M141.75 138.64C143.843 138.64 145.54 136.276 145.54 133.36C145.54 130.444 143.843 128.08 141.75 128.08C139.657 128.08 137.96 130.444 137.96 133.36C137.96 136.276 139.657 138.64 141.75 138.64Z" fill="white" stroke="white" stroke-width="9" stroke-miterlimit="10"/>
<path d="M144.69 153.6C147.19 151.6 149.2 148 152.23 145.93L152.45 145.8C152.021 144.742 151.206 143.888 150.17 143.41C143.04 139.95 142.03 143.95 139.85 148.41C138.04 152.13 137.56 155.76 139.44 157.87C140.89 156.25 142.86 155.08 144.69 153.6Z" fill="white"/>
<path d="M117.07 123.31C117.07 123.31 101.62 126.98 90.71 118.51H90.35C79.44 126.98 63.99 123.31 63.99 123.31" fill="white"/>
<path d="M117.07 123.31C117.07 123.31 101.62 126.98 90.71 118.51H90.35C79.44 126.98 63.99 123.31 63.99 123.31" stroke="white" stroke-width="9" stroke-miterlimit="10"/>
<path d="M174.96 83.3999C174.9 80.1399 170.41 77.1699 162.5 87.3399C165.08 84.2299 166.81 50.9999 144.98 81.5199C147.98 76.7899 133.36 33.5199 113.78 71.2199C113.78 71.2199 96.3701 66.8399 90.4401 66.8399C84.5101 66.8399 67.1001 71.2199 67.1001 71.2199C47.5001 33.5199 32.8601 76.7899 35.9001 81.5199C14.0601 50.9999 15.7901 84.2299 18.3701 87.3399C10.5001 77.1699 5.87008 80.1399 5.92008 83.3999C6.33008 112.47 16.6401 134.21 31.9701 148.84C32.2088 149.026 32.4298 149.233 32.6301 149.46C80.6701 194.23 176.5 170.37 174.96 83.3999Z" fill="#F6FEFF"/>
<path d="M162.5 87.34C162.5 87.34 160.42 103.55 147.55 106.93C121.73 113.73 109.21 92.25 105.29 95.64C103.29 97.36 106.03 106.18 91.6699 108.06H89.7999C75.4399 106.18 78.1699 97.36 76.1799 95.64C72.2599 92.25 59.7399 113.73 33.9199 106.93C21.0499 103.55 18.3699 87.34 18.3699 87.34" fill="white"/>
<path d="M35.9 81.52C33.6 82.32 52.25 72.9 67.1 71.22Z" fill="white"/>
<path d="M144.6 81.52C146.9 82.32 128.25 72.9 113.4 71.22Z" fill="white"/>
<path d="M76.5 69C81.1725 70.785 85.2816 73.7891 88.4 77.7L89.4 84.19C90.8202 83.7077 92.3598 83.7077 93.78 84.19" fill="white"/>
<path d="M105.94 69.25C105.94 69.25 99.94 70.95 94.34 77.73L93.34 84.22C91.9198 83.7377 90.3801 83.7377 88.96 84.22" fill="white"/>
<path d="M49.3101 88C49.3101 88 61.1701 99.06 71.3101 84.21Z" fill="white"/>
<path d="M133.01 88C133.01 88 121.16 99.06 111.01 84.21Z" fill="white"/>
<path d="M20.2299 135.17C19.6299 133.6 24.5599 120.46 34.1599 120.86C38.02 121.01 41.6918 122.568 44.4826 125.239C47.2734 127.91 48.9905 131.51 49.3099 135.36C49.7899 141.36 54.1099 163.36 56.5599 165.1" fill="#F6FEFF"/>
<path d="M51.3999 137.05C51.3999 137.05 65.3999 137.99 73.3099 149.29C73.3099 149.29 72.7399 123.69 90.4399 145.9" fill="white"/>
<path d="M161.03 135.17C161.62 133.6 156.7 120.46 147.1 120.86C143.239 121.01 139.566 122.567 136.773 125.238C133.981 127.909 132.262 131.509 131.94 135.36C131.46 141.36 127.14 163.36 124.7 165.1" fill="#F6FEFF"/>
<path d="M129.85 137.05C129.85 137.05 115.85 137.99 107.94 149.29C107.94 149.29 108.51 123.69 90.8101 145.9" fill="white"/>
<path d="M28.07 137.73C30.1632 137.73 31.86 135.769 31.86 133.35C31.86 130.931 30.1632 128.97 28.07 128.97C25.9769 128.97 24.28 130.931 24.28 133.35C24.28 135.769 25.9769 137.73 28.07 137.73Z" fill="white"/>
<path d="M39.49 138.64C41.5831 138.64 43.2799 136.276 43.2799 133.36C43.2799 130.444 41.5831 128.08 39.49 128.08C37.3968 128.08 35.7 130.444 35.7 133.36C35.7 136.276 37.3968 138.64 39.49 138.64Z" fill="white"/>
<path d="M41.3999 148.44C39.2199 143.95 38.2099 139.95 31.0799 143.44C30.4939 143.711 29.9729 144.105 29.552 144.595C29.1311 145.085 28.8201 145.66 28.6399 146.28C29.5217 146.863 30.3425 147.533 31.0899 148.28C31.2499 148.39 31.4199 148.48 31.5799 148.58C32.4744 149.128 33.1741 149.943 33.5799 150.91C33.9099 151.28 34.2299 151.64 34.5799 152C36.7599 154.31 39.7199 155.57 42.0799 157.68C43.6499 155.51 43.1399 152 41.3999 148.44Z" fill="white"/>
<path d="M153.17 137.73C155.263 137.73 156.96 135.769 156.96 133.35C156.96 130.931 155.263 128.97 153.17 128.97C151.077 128.97 149.38 130.931 149.38 133.35C149.38 135.769 151.077 137.73 153.17 137.73Z" fill="white"/>
<path d="M141.75 138.64C143.843 138.64 145.54 136.276 145.54 133.36C145.54 130.444 143.843 128.08 141.75 128.08C139.657 128.08 137.96 130.444 137.96 133.36C137.96 136.276 139.657 138.64 141.75 138.64Z" fill="white"/>
<path d="M145.5 151.17C147.9 149.42 149.79 147.17 152.35 145.58C151.901 144.623 151.129 143.855 150.17 143.41C143.04 139.95 142.03 143.95 139.85 148.41C138.45 151.28 137.85 154.1 138.51 156.21C140.71 154.38 143.14 152.89 145.5 151.17Z" fill="white"/>
<path d="M117.07 123.31C117.07 123.31 101.62 126.98 90.71 118.51H90.35C79.44 126.98 63.99 123.31 63.99 123.31" fill="white"/>
<path d="M90.4399 171.58C137.285 171.58 175.26 133.605 175.26 86.7599C175.26 39.9151 137.285 1.93994 90.4399 1.93994C43.5951 1.93994 5.61987 39.9151 5.61987 86.7599C5.61987 133.605 43.5951 171.58 90.4399 171.58Z" stroke="#6F5F5E" stroke-width="3.87" stroke-linecap="round" stroke-linejoin="round"/>
<path d="M18.6901 86.7999C18.6901 86.7999 11.7901 51.0499 36.2101 80.9999C36.2101 80.9999 62.8101 68.9999 76.8301 68.5099L87.8301 76.2199L89.2701 83.6999H93.6401L94.6401 77.2099L104.64 68.5099L144.92 80.9999C144.92 80.9999 167.92 50.5599 162.82 86.8199C162.82 86.8199 153.53 126.74 106.26 92.0099C107.57 92.9199 90.4901 123.33 75.0401 92.5799C74.9801 93.9999 30.0301 126.51 18.6901 86.7999Z" fill="#6F5F5E" stroke="#6F5F5E" stroke-width="2" stroke-linejoin="round"/>
<path d="M90.76 66.3C84.82 66.3 67.41 70.68 67.41 70.68C47.84 33 33.18 76.25 36.21 81C14.38 50.48 16.11 83.71 18.69 86.82C10.79 76.65 6.23999 82.8799 6.23999 82.8799" stroke="#6F5F5E" stroke-width="3" stroke-linejoin="round"/>
<path d="M175.27 82.8599C175.27 82.8599 170.72 76.6299 162.82 86.7999C165.4 83.6899 167.13 50.4599 145.3 80.9799C148.3 76.2499 133.67 32.9799 114.1 70.6799C114.1 70.6799 96.69 66.2999 90.76 66.2999" stroke="#6F5F5E" stroke-width="3" stroke-linejoin="round"/>
<path d="M162.82 86.7999C162.82 86.7999 160.74 103 147.87 106.39C122.05 113.19 109.52 91.7099 105.61 95.0999C103.61 96.8199 106.35 105.64 91.9899 107.52H90.1199C75.7499 105.64 78.4999 96.8199 76.4999 95.0999C72.5799 91.7099 60.0599 113.19 34.2399 106.39C21.3699 103 18.6899 86.7999 18.6899 86.7999" stroke="#6F5F5E" stroke-width="2.99" stroke-linejoin="round"/>
<path d="M36.2099 81C33.9199 81.8 52.5699 72.38 67.4099 70.7" stroke="#6F5F5E" stroke-width="3" stroke-linejoin="round"/>
<path d="M144.92 81C147.21 81.8 128.57 72.38 113.72 70.7" stroke="#6F5F5E" stroke-width="3" stroke-linejoin="round"/>
<path d="M76.8301 68.49C81.5026 70.275 85.6117 73.2791 88.7301 77.19L89.7301 83.68C91.1502 83.1977 92.6899 83.1977 94.1101 83.68" stroke="#6F5F5E" stroke-width="3" stroke-linejoin="round"/>
<path d="M106.26 68.71C106.26 68.71 100.26 70.41 94.66 77.19L93.66 83.68C92.2432 83.1984 90.7069 83.1984 89.29 83.68" stroke="#6F5F5E" stroke-width="3" stroke-linejoin="round"/>
<path d="M49.6299 87.4699C49.6299 87.4699 61.4799 98.5299 71.6299 83.6799" stroke="#F6FEFF" stroke-width="3" stroke-linecap="round" stroke-linejoin="round"/>
<path d="M133.33 87.4699C133.33 87.4699 121.47 98.5299 111.33 83.6799" stroke="#F6FEFF" stroke-width="3" stroke-linecap="round" stroke-linejoin="round"/>
<path d="M20.4999 134.63C19.9099 133.06 24.8299 119.92 34.4299 120.32C38.2911 120.47 41.9641 122.027 44.7566 124.698C47.5491 127.369 49.2682 130.969 49.5899 134.82C50.0699 140.82 54.3899 162.82 56.8299 164.56" stroke="#6F5F5E" stroke-width="3" stroke-linecap="round" stroke-linejoin="round"/>
<path d="M51.72 136.51C51.72 136.51 65.72 137.45 73.63 148.75C73.63 148.75 73.06 123.15 90.76 145.36" stroke="#6F5F5E" stroke-width="3" stroke-linecap="round" stroke-linejoin="round"/>
<path d="M161.34 134.63C161.94 133.06 157.01 119.92 147.41 120.32C143.55 120.47 139.878 122.028 137.087 124.699C134.296 127.37 132.579 130.97 132.26 134.82C131.78 140.82 127.46 162.82 125.01 164.56" stroke="#6F5F5E" stroke-width="3" stroke-linecap="round" stroke-linejoin="round"/>
<path d="M130.17 136.51C130.17 136.51 116.17 137.45 108.26 148.75C108.26 148.75 108.83 123.15 91.1299 145.36" stroke="#6F5F5E" stroke-width="3" stroke-linecap="round" stroke-linejoin="round"/>
<path d="M28.3899 137.19C30.483 137.19 32.1799 135.229 32.1799 132.81C32.1799 130.391 30.483 128.43 28.3899 128.43C26.2967 128.43 24.5999 130.391 24.5999 132.81C24.5999 135.229 26.2967 137.19 28.3899 137.19Z" fill="#6F5F5E" stroke="#6F5F5E" stroke-width="2" stroke-linecap="round" stroke-linejoin="round"/>
<path d="M39.81 138.1C41.9032 138.1 43.6 135.736 43.6 132.82C43.6 129.904 41.9032 127.54 39.81 127.54C37.7169 127.54 36.02 129.904 36.02 132.82C36.02 135.736 37.7169 138.1 39.81 138.1Z" fill="#6F5F5E" stroke="#6F5F5E" stroke-width="2" stroke-linecap="round" stroke-linejoin="round"/>
<path d="M30.5 146.67C33.18 147.91 34.41 150.39 36.5 152.67C37.4185 153.405 38.4266 154.019 39.5 154.5C40.597 155.091 41.6066 155.831 42.5 156.7C43.83 154.54 43.29 151.24 41.65 147.86C39.47 143.37 38.46 139.36 31.33 142.86C30.2586 143.352 29.4248 144.247 29.01 145.35C29.5926 145.682 30.1 146.132 30.5 146.67V146.67Z" fill="#6F5F5E" stroke="#6F5F5E" stroke-width="2" stroke-linecap="round" stroke-linejoin="round"/>
<path d="M153.49 137.19C155.583 137.19 157.28 135.229 157.28 132.81C157.28 130.391 155.583 128.43 153.49 128.43C151.397 128.43 149.7 130.391 149.7 132.81C149.7 135.229 151.397 137.19 153.49 137.19Z" fill="#6F5F5E" stroke="#6F5F5E" stroke-width="2" stroke-linecap="round" stroke-linejoin="round"/>
<path d="M142.07 138.1C144.163 138.1 145.86 135.736 145.86 132.82C145.86 129.904 144.163 127.54 142.07 127.54C139.977 127.54 138.28 129.904 138.28 132.82C138.28 135.736 139.977 138.1 142.07 138.1Z" fill="#6F5F5E" stroke="#6F5F5E" stroke-width="2" stroke-linecap="round" stroke-linejoin="round"/>
<path d="M152.65 145C152.209 144.044 151.443 143.276 150.49 142.83C143.36 139.36 142.35 143.37 140.17 147.83C138.5 151.26 137.97 154.61 139.38 156.77C140.74 155.72 142.12 154.69 143.5 153.66C144.27 152.99 145.08 152.34 145.91 151.66C147.08 150.76 148.32 149.87 149.52 148.93C150.431 147.52 151.48 146.204 152.65 145V145Z" fill="#6F5F5E" stroke="#6F5F5E" stroke-width="2" stroke-linecap="round" stroke-linejoin="round"/>
<path d="M117.39 122.77C117.39 122.77 101.94 126.44 91.0301 117.97H90.6701C79.7601 126.44 64.3101 122.77 64.3101 122.77" stroke="#6F5F5E" stroke-width="3" stroke-linecap="round" stroke-linejoin="round"/>
<path d="M78.99 29.3099L74.79 36.8199L75.31 45.4099L67.81 41.2099L59.22 41.7299L63.41 34.2199L62.89 25.6399L70.4 29.8299L78.99 29.3099Z" fill="#F6FEFF"/>
<path d="M129.43 36.6899L116.79 40.3799C116.674 40.4137 116.57 40.4795 116.49 40.5699L107.84 50.4999C107.764 50.5847 107.668 50.6479 107.559 50.6828C107.451 50.7178 107.336 50.7234 107.225 50.6989C107.114 50.6745 107.011 50.621 106.928 50.5438C106.844 50.4666 106.783 50.3686 106.75 50.2599L103.06 37.6199C103.028 37.503 102.962 37.3984 102.87 37.3199L92.9501 28.6699C92.8621 28.5959 92.796 28.4992 92.759 28.3904C92.7221 28.2815 92.7156 28.1646 92.7403 28.0523C92.765 27.94 92.82 27.8366 92.8993 27.7534C92.9786 27.6701 93.0791 27.6101 93.1901 27.5799L105.82 23.8899C105.935 23.8547 106.039 23.7891 106.12 23.6999L114.77 13.7699C114.846 13.6851 114.943 13.622 115.051 13.587C115.159 13.552 115.274 13.5464 115.385 13.5709C115.496 13.5953 115.599 13.6489 115.682 13.726C115.766 13.8032 115.827 13.9012 115.86 14.0099L119.55 26.6499C119.591 26.7647 119.66 26.8677 119.75 26.9499L129.67 35.5999C129.755 35.6756 129.818 35.7724 129.853 35.8805C129.888 35.9887 129.894 36.1042 129.869 36.2152C129.845 36.3261 129.791 36.4286 129.714 36.5121C129.637 36.5955 129.539 36.6569 129.43 36.6899Z" fill="#F6FEFF"/>
<path d="M85.13 20.41C87.4275 20.41 89.29 18.5475 89.29 16.25C89.29 13.9525 87.4275 12.09 85.13 12.09C82.8325 12.09 80.97 13.9525 80.97 16.25C80.97 18.5475 82.8325 20.41 85.13 20.41Z" fill="#F6FEFF"/>
<path d="M33.8 190.6V208.87C33.8 210.98 35.26 211.49 35.26 212.95V213C35.26 214.59 32.56 215 29.46 215C26.36 215 23.61 214.57 23.61 213C23.61 211.54 25.07 211 25.07 208.92V190.81C22.5 197.35 18.5 207.36 17.72 209.13C17.08 210.72 16.34 211.13 15.14 211.13C14.14 211.13 13.03 210.83 12.14 208.94C11.54 207.52 7.40997 198.14 5.25997 193.28V208.85C5.25997 210.96 7.15997 211.47 7.15997 212.93V213C7.15997 214.46 5.47997 215 3.53997 215C1.59997 215 -0.0300293 214.44 -0.0300293 213C-0.0300293 211.54 1.86997 211 1.86997 208.92V190.92C1.86997 188.81 0.229971 188.29 0.229971 186.83V186.75C0.229971 185.15 2.07997 184.75 4.39997 184.75C10.4 184.75 10.81 186.13 11.71 188.15C12.32 189.57 15.45 197.01 17.26 201.35C17.26 201.35 22.26 189.05 22.89 187.59C23.8 185.59 25.04 184.75 29.43 184.75C32.53 184.75 35.23 184.93 35.23 186.52V186.6C35.26 188 33.8 188.53 33.8 190.6Z" fill="#6F5F5E"/>
<path d="M49.2399 213C49.2399 214.59 46.5699 215 43.4399 215C40.3099 215 37.6299 214.57 37.6299 213C37.6299 211.54 39.0499 211 39.0499 208.92V202.69C39.0499 200.62 37.6299 200.11 37.6299 198.69V198.61C37.6299 197.02 39.3099 195.9 42.6299 194.61C45.4199 193.61 47.8299 193.49 47.8299 195.99V208.93C47.8199 211 49.2399 211.49 49.2399 213ZM38.4999 187.28C38.4999 184.4 40.7799 182.77 43.4999 182.77C46.2199 182.77 48.4999 184.4 48.4999 187.28C48.4999 190.16 46.1799 191.8 43.4999 191.8C40.8199 191.8 38.4999 190.17 38.4999 187.28Z" fill="#6F5F5E"/>
<path d="M76.2899 213C76.2899 214.59 73.5799 215 70.4399 215C67.2999 215 64.6299 214.57 64.6299 213C64.6299 211.54 66.0999 211 66.0999 208.92V202.13C66.0999 199.2 65.2399 198.13 63.7299 198.13C62.4399 198.13 61.4099 199.24 61.3699 201.87V208.92C61.3699 211.03 62.8299 211.54 62.8299 213V213C62.8299 214.59 60.1199 215 56.9799 215C53.8399 215 51.1699 214.57 51.1699 213C51.1699 211.54 52.6399 211 52.6399 208.92V202.69C52.6399 200.62 51.1699 200.11 51.1699 198.69V198.61C51.1699 197.02 52.8499 195.9 56.1699 194.61C59.0099 193.61 60.8199 193.54 60.8199 195.99V197.28C61.3369 196.294 62.1067 195.464 63.0502 194.873C63.9938 194.283 65.0774 193.954 66.1899 193.92C72.0399 193.66 74.8299 197.49 74.8299 202.27V208.93C74.8199 211 76.2899 211.49 76.2899 213Z" fill="#6F5F5E"/>
<path d="M103.55 211.32V211.41C103.55 213 102.39 214.55 99.29 215.19C96.75 215.75 94.52 214.93 94 212.95C93.92 212.74 93.87 212.57 93.83 212.44C93.1324 213.349 92.2345 214.086 91.2061 214.593C90.1777 215.099 89.0464 215.362 87.9 215.36C81.96 215.36 77.79 211.23 77.79 204.61C77.79 197.99 82.26 193.86 88.15 193.86C89.7492 193.808 91.3218 194.279 92.63 195.2V191.2C92.63 189.14 91.21 188.62 91.21 187.2V187C91.21 185.4 92.88 184.29 96.21 183C99.01 182 101.42 181.88 101.42 184.38V207.17C101.4 209.34 103.55 209.86 103.55 211.32ZM92.84 204.61C92.84 200.79 91.94 197.61 89.84 197.61C87.99 197.61 86.79 199.97 86.79 204.61C86.79 209.25 87.99 211.61 89.84 211.61C91.94 211.62 92.84 208.48 92.84 204.61V204.61Z" fill="#6F5F5E"/>
<path d="M127.71 194H127.63C124.7 194 124.32 188.28 120.32 188.28H117.82C116.36 188.28 115.67 188.97 115.67 191.07V198.94H119.67C121.78 198.94 121.74 195.72 123.2 195.72H123.29C124.58 195.72 124.75 197.53 124.75 200.66C124.75 203.79 124.58 205.61 123.29 205.61H123.2C121.74 205.61 121.78 202.38 119.67 202.38H115.67V209.22C115.67 211.03 117.44 211.67 117.44 213.31C117.44 214.86 115.11 215.07 111.33 215.07C108.19 215.07 105.48 214.9 105.48 213.31C105.48 211.84 106.94 211.31 106.94 209.22V191C106.94 188.9 105.48 188.38 105.48 186.92C105.48 185.28 107.33 184.85 109.65 184.85H121.65C123.93 184.85 124.49 184.12 125.95 184.12C127.2 184.12 127.76 184.72 128.02 186.12C128.32 187.67 128.79 190.42 128.96 191.8C129.13 193.18 128.62 194 127.71 194Z" fill="#6F5F5E"/>
<path d="M153.77 211.32V211.41C153.77 213 152.35 214.55 149.26 215.19C146.72 215.75 144.87 214.89 144.26 212.95C144.149 212.623 144.062 212.289 144 211.95C143.439 213.025 142.58 213.915 141.527 214.516C140.474 215.117 139.271 215.403 138.06 215.34C132.22 215.34 129.46 211.52 129.46 206.74V202C129.46 199.9 128 199.38 128 197.92V197.83C128 196.24 129.21 194.95 132.77 194.18C135.7 193.53 138.19 193.62 138.19 196.11V207.11C138.19 210.03 139.01 211.11 140.51 211.11C141.85 211.11 142.88 210.03 142.92 207.41V202C142.92 199.9 141.46 199.38 141.46 197.92V197.83C141.46 196.24 142.66 194.95 146.23 194.18C149.16 193.53 151.65 193.62 151.65 196.11V207.21C151.62 209.34 153.77 209.86 153.77 211.32Z" fill="#6F5F5E"/>
<path d="M166.5 213C166.5 214.59 163.83 215 160.69 215C157.55 215 154.89 214.57 154.89 213C154.89 211.54 156.3 211 156.3 208.92V191.15C156.3 189.09 154.89 188.57 154.89 187.15V187C154.89 185.4 156.56 184.29 159.89 183C162.69 182 165.1 181.88 165.1 184.38V208.8C165.04 211 166.5 211.49 166.5 213Z" fill="#6F5F5E"/>
<path d="M179.57 213C179.57 214.59 176.9 215 173.77 215C170.64 215 167.96 214.57 167.96 213C167.96 211.54 169.38 211 169.38 208.92V191.15C169.38 189.09 167.96 188.57 167.96 187.15V187C167.96 185.4 169.64 184.29 172.96 183C175.75 182 178.16 181.88 178.16 184.38V208.8C178.15 211 179.57 211.49 179.57 213Z" fill="#6F5F5E"/>
</g>
<defs>
<clipPath id="clip0_2_1445">
<rect width="179.57" height="215.36" fill="white"/>
</clipPath>
</defs>
</svg>
