<svg width="174" height="174" viewBox="0 0 174 174" fill="none" xmlns="http://www.w3.org/2000/svg">
<path d="M86.7599 171.58C133.605 171.58 171.58 133.605 171.58 86.7599C171.58 39.9151 133.605 1.93994 86.7599 1.93994C39.9151 1.93994 1.93994 39.9151 1.93994 86.7599C1.93994 133.605 39.9151 171.58 86.7599 171.58Z" fill="#6F5F5E" stroke="#6F5F5E" stroke-width="3.87" stroke-linecap="round" stroke-linejoin="round"/>
<path d="M167.21 80.4499C165.14 80.9099 162.31 82.8299 158.81 87.3399C161.39 84.2299 163.12 50.9999 141.29 81.5199C144.29 76.7899 129.66 33.5199 110.09 71.2199C110.09 71.2199 92.6797 66.8399 86.7497 66.8399C80.8197 66.8399 63.3997 71.2199 63.3997 71.2199C43.8297 33.5199 29.1697 76.7899 32.1997 81.5199C10.3697 50.9999 12.0997 84.2299 14.6797 87.3399C10.9597 82.5499 7.9797 80.6899 5.8697 80.3399C5.8714 80.7293 5.83456 81.1178 5.7597 81.4999C5.41943 83.4201 5.31866 85.375 5.4597 87.3199C5.9497 88.5399 6.4597 89.7999 6.9797 91.0899H165.05C165.415 88.5664 166.185 86.1182 167.33 83.8399C167.201 82.7148 167.161 81.5813 167.21 80.4499Z" fill="white" stroke="white" stroke-width="9" stroke-miterlimit="10"/>
<path d="M158.81 87.34C158.81 87.34 156.73 103.55 143.86 106.93C118.04 113.73 105.51 92.25 101.6 95.64C99.6002 97.36 102.34 106.18 87.9802 108.06H86.1102C71.7402 106.18 74.4802 97.36 72.4902 95.64C68.5702 92.25 56.0502 113.73 30.2302 106.93C17.3602 103.55 14.6802 87.34 14.6802 87.34" fill="white"/>
<path d="M158.81 87.34C158.81 87.34 156.73 103.55 143.86 106.93C118.04 113.73 105.51 92.25 101.6 95.64C99.6002 97.36 102.34 106.18 87.9802 108.06H86.1102C71.7402 106.18 74.4802 97.36 72.4902 95.64C68.5702 92.25 56.0502 113.73 30.2302 106.93C17.3602 103.55 14.6802 87.34 14.6802 87.34" stroke="white" stroke-width="9" stroke-miterlimit="10"/>
<path d="M32.1999 81.52C29.9099 82.32 48.5599 72.9 63.3999 71.22Z" fill="white"/>
<path d="M32.1999 81.52C29.9099 82.32 48.5599 72.9 63.3999 71.22" stroke="white" stroke-width="9" stroke-miterlimit="10"/>
<path d="M140.91 81.52C143.2 82.32 124.56 72.9 109.71 71.22Z" fill="white"/>
<path d="M140.91 81.52C143.2 82.32 124.56 72.9 109.71 71.22" stroke="white" stroke-width="9" stroke-miterlimit="10"/>
<path d="M72.8198 69C77.4924 70.785 81.6014 73.7891 84.7198 77.7L85.7198 84.19C87.14 83.7077 88.6797 83.7077 90.0998 84.19" fill="white"/>
<path d="M72.8198 69C77.4924 70.785 81.6014 73.7891 84.7198 77.7L85.7198 84.19C87.14 83.7077 88.6797 83.7077 90.0998 84.19" stroke="white" stroke-width="9" stroke-miterlimit="10"/>
<path d="M102.25 69.25C102.25 69.25 96.2498 70.95 90.6498 77.73L89.6498 84.22C88.2329 83.7384 86.6967 83.7384 85.2798 84.22" fill="white"/>
<path d="M102.25 69.25C102.25 69.25 96.2498 70.95 90.6498 77.73L89.6498 84.22C88.2329 83.7384 86.6967 83.7384 85.2798 84.22" stroke="white" stroke-width="9" stroke-miterlimit="10"/>
<path d="M45.6201 88C45.6201 88 57.4801 99.06 67.6201 84.21Z" fill="white"/>
<path d="M45.6201 88C45.6201 88 57.4801 99.06 67.6201 84.21" stroke="white" stroke-width="9" stroke-miterlimit="10"/>
<path d="M129.32 88C129.32 88 117.46 99.06 107.32 84.21Z" fill="white"/>
<path d="M129.32 88C129.32 88 117.46 99.06 107.32 84.21" stroke="white" stroke-width="9" stroke-miterlimit="10"/>
<path d="M16.5299 135.17C15.9399 133.6 20.8599 120.46 30.4599 120.86C34.3212 121.01 37.9941 122.567 40.7866 125.238C43.5791 127.909 45.2982 131.509 45.6199 135.36C46.0999 141.36 50.4199 163.36 52.8599 165.1" fill="white"/>
<path d="M16.5299 135.17C15.9399 133.6 20.8599 120.46 30.4599 120.86C34.3212 121.01 37.9941 122.567 40.7866 125.238C43.5791 127.909 45.2982 131.509 45.6199 135.36C46.0999 141.36 50.4199 163.36 52.8599 165.1" stroke="white" stroke-width="3" stroke-miterlimit="10"/>
<path d="M47.71 137.05C47.71 137.05 61.71 137.99 69.62 149.29C69.62 149.29 69.05 123.69 86.75 145.9" fill="white"/>
<path d="M47.71 137.05C47.71 137.05 61.71 137.99 69.62 149.29C69.62 149.29 69.05 123.69 86.75 145.9" stroke="white" stroke-width="9" stroke-miterlimit="10"/>
<path d="M157.33 135.17C157.93 133.6 153 120.46 143.4 120.86C139.54 121.01 135.868 122.568 133.077 125.239C130.286 127.91 128.569 131.51 128.25 135.36C127.77 141.36 123.45 163.36 121 165.1" fill="white"/>
<path d="M157.33 135.17C157.93 133.6 153 120.46 143.4 120.86C139.54 121.01 135.868 122.568 133.077 125.239C130.286 127.91 128.569 131.51 128.25 135.36C127.77 141.36 123.45 163.36 121 165.1" stroke="white" stroke-width="3" stroke-miterlimit="10"/>
<path d="M126.16 137.05C126.16 137.05 112.16 137.99 104.25 149.29C104.25 149.29 104.82 123.69 87.1201 145.9" fill="white"/>
<path d="M126.16 137.05C126.16 137.05 112.16 137.99 104.25 149.29C104.25 149.29 104.82 123.69 87.1201 145.9" stroke="white" stroke-width="9" stroke-miterlimit="10"/>
<path d="M24.3798 137.73C26.473 137.73 28.1698 135.769 28.1698 133.35C28.1698 130.931 26.473 128.97 24.3798 128.97C22.2867 128.97 20.5898 130.931 20.5898 133.35C20.5898 135.769 22.2867 137.73 24.3798 137.73Z" fill="white"/>
<path d="M35.81 138.64C37.9032 138.64 39.6 136.276 39.6 133.36C39.6 130.444 37.9032 128.08 35.81 128.08C33.7169 128.08 32.02 130.444 32.02 133.36C32.02 136.276 33.7169 138.64 35.81 138.64Z" fill="white" stroke="white" stroke-width="9" stroke-miterlimit="10"/>
<path d="M37.7101 148.44C35.5301 143.95 34.5201 139.95 27.3901 143.44C26.724 143.747 26.1427 144.211 25.6966 144.793C25.2506 145.375 24.9531 146.057 24.8301 146.78L25.8301 147.3C27.4305 148.051 28.9543 148.955 30.3801 150C33.3406 152.11 36.1785 154.387 38.8801 156.82C39.8201 154.63 39.2301 151.57 37.7101 148.44Z" fill="white"/>
<path d="M149.48 137.73C151.573 137.73 153.27 135.769 153.27 133.35C153.27 130.931 151.573 128.97 149.48 128.97C147.387 128.97 145.69 130.931 145.69 133.35C145.69 135.769 147.387 137.73 149.48 137.73Z" fill="white" stroke="white" stroke-width="9" stroke-miterlimit="10"/>
<path d="M138.06 138.64C140.153 138.64 141.85 136.276 141.85 133.36C141.85 130.444 140.153 128.08 138.06 128.08C135.967 128.08 134.27 130.444 134.27 133.36C134.27 136.276 135.967 138.64 138.06 138.64Z" fill="white" stroke="white" stroke-width="9" stroke-miterlimit="10"/>
<path d="M141 153.6C143.5 151.6 145.51 148 148.54 145.93L148.76 145.8C148.331 144.742 147.516 143.888 146.48 143.41C139.35 139.95 138.34 143.95 136.16 148.41C134.35 152.13 133.87 155.76 135.75 157.87C137.2 156.25 139.16 155.08 141 153.6Z" fill="white"/>
<path d="M113.38 123.31C113.38 123.31 97.9298 127 86.9998 118.51H86.6398C75.7298 126.98 60.2798 123.31 60.2798 123.31" fill="white"/>
<path d="M113.38 123.31C113.38 123.31 97.9298 127 86.9998 118.51H86.6398C75.7298 126.98 60.2798 123.31 60.2798 123.31" stroke="white" stroke-width="9" stroke-miterlimit="10"/>
<path d="M171.26 83.3999C171.2 80.1399 166.71 77.1699 158.81 87.3399C161.39 84.2299 163.12 50.9999 141.29 81.5199C144.29 76.7899 129.66 33.5199 110.09 71.2199C110.09 71.2199 92.6799 66.8399 86.7499 66.8399C80.8199 66.8399 63.3999 71.2199 63.3999 71.2199C43.8299 33.5199 29.1699 76.7899 32.1999 81.5199C10.3699 50.9999 12.0999 84.2299 14.6799 87.3399C6.7799 77.1699 2.1799 80.1399 2.2299 83.3999C2.6399 112.47 12.9399 134.21 28.2799 148.84C28.5186 149.026 28.7396 149.233 28.9399 149.46C76.9999 194.23 172.84 170.37 171.26 83.3999Z" fill="#F6FEFF"/>
<path d="M158.81 87.34C158.81 87.34 156.73 103.55 143.86 106.93C118.04 113.73 105.51 92.25 101.6 95.64C99.6002 97.36 102.34 106.18 87.9802 108.06H86.1102C71.7402 106.18 74.4802 97.36 72.4902 95.64C68.5702 92.25 56.0502 113.73 30.2302 106.93C17.3602 103.55 14.6802 87.34 14.6802 87.34" fill="white"/>
<path d="M32.1999 81.52C29.9099 82.32 48.5599 72.9 63.3999 71.22Z" fill="white"/>
<path d="M140.91 81.52C143.2 82.32 124.56 72.9 109.71 71.22Z" fill="white"/>
<path d="M72.8198 69C77.4924 70.785 81.6014 73.7891 84.7198 77.7L85.7198 84.19C87.14 83.7077 88.6797 83.7077 90.0998 84.19" fill="white"/>
<path d="M102.25 69.25C102.25 69.25 96.2498 70.95 90.6498 77.73L89.6498 84.22C88.2329 83.7384 86.6967 83.7384 85.2798 84.22" fill="white"/>
<path d="M45.6201 88C45.6201 88 57.4801 99.06 67.6201 84.21Z" fill="white"/>
<path d="M129.32 88C129.32 88 117.46 99.06 107.32 84.21Z" fill="white"/>
<path d="M16.5299 135.17C15.9399 133.6 20.8599 120.46 30.4599 120.86C34.3212 121.01 37.9941 122.567 40.7866 125.238C43.5791 127.909 45.2982 131.509 45.6199 135.36C46.0999 141.36 50.4199 163.36 52.8599 165.1" fill="#F6FEFF"/>
<path d="M47.71 137.05C47.71 137.05 61.71 137.99 69.62 149.29C69.62 149.29 69.05 123.69 86.75 145.9" fill="white"/>
<path d="M157.33 135.17C157.93 133.6 153 120.46 143.4 120.86C139.54 121.01 135.868 122.568 133.077 125.239C130.286 127.91 128.569 131.51 128.25 135.36C127.77 141.36 123.45 163.36 121 165.1" fill="#F6FEFF"/>
<path d="M126.16 137.05C126.16 137.05 112.16 137.99 104.25 149.29C104.25 149.29 104.82 123.69 87.1201 145.9" fill="white"/>
<path d="M24.3798 137.73C26.473 137.73 28.1698 135.769 28.1698 133.35C28.1698 130.931 26.473 128.97 24.3798 128.97C22.2867 128.97 20.5898 130.931 20.5898 133.35C20.5898 135.769 22.2867 137.73 24.3798 137.73Z" fill="white"/>
<path d="M35.81 138.64C37.9032 138.64 39.6 136.276 39.6 133.36C39.6 130.444 37.9032 128.08 35.81 128.08C33.7169 128.08 32.02 130.444 32.02 133.36C32.02 136.276 33.7169 138.64 35.81 138.64Z" fill="white"/>
<path d="M37.71 148.44C35.53 143.95 34.52 139.95 27.39 143.44C26.8153 143.712 26.3051 144.104 25.8931 144.588C25.4811 145.073 25.1767 145.639 25 146.25C25.8805 146.83 26.6982 147.5 27.44 148.25L27.93 148.55C28.8246 149.098 29.5242 149.913 29.93 150.88C30.25 151.25 30.58 151.61 30.93 151.97C33.11 154.28 36.07 155.54 38.42 157.65C40 155.51 39.45 152 37.71 148.44Z" fill="white"/>
<path d="M149.48 137.73C151.573 137.73 153.27 135.769 153.27 133.35C153.27 130.931 151.573 128.97 149.48 128.97C147.387 128.97 145.69 130.931 145.69 133.35C145.69 135.769 147.387 137.73 149.48 137.73Z" fill="white"/>
<path d="M138.06 138.64C140.153 138.64 141.85 136.276 141.85 133.36C141.85 130.444 140.153 128.08 138.06 128.08C135.967 128.08 134.27 130.444 134.27 133.36C134.27 136.276 135.967 138.64 138.06 138.64Z" fill="white"/>
<path d="M141.8 151.17C144.2 149.42 146.1 147.17 148.66 145.58C148.211 144.623 147.439 143.855 146.48 143.41C139.35 139.95 138.34 143.95 136.16 148.41C134.76 151.28 134.16 154.1 134.82 156.21C137 154.38 139.45 152.89 141.8 151.17Z" fill="white"/>
<path d="M113.38 123.31C113.38 123.31 97.9298 127 86.9998 118.51H86.6398C75.7298 126.98 60.2798 123.31 60.2798 123.31" fill="white"/>
<path d="M86.7599 171.58C133.605 171.58 171.58 133.605 171.58 86.7599C171.58 39.9151 133.605 1.93994 86.7599 1.93994C39.9151 1.93994 1.93994 39.9151 1.93994 86.7599C1.93994 133.605 39.9151 171.58 86.7599 171.58Z" stroke="#6F5F5E" stroke-width="3.87" stroke-linecap="round" stroke-linejoin="round"/>
<path d="M15.0001 86.7999C15.0001 86.7999 8.10014 51.0499 32.5201 80.9999C32.5201 80.9999 59.1201 68.9999 73.1401 68.5099L84.1401 76.2199L85.5701 83.6999H90.0001L91.0001 77.2099L101 68.5099L141.23 80.9999C141.23 80.9999 164.23 50.5599 159.13 86.8199C159.13 86.8199 149.84 126.74 102.57 92.0099C103.88 92.9199 86.7901 123.33 71.3501 92.5799C71.2801 93.9999 26.3401 126.51 15.0001 86.7999Z" fill="#6F5F5E" stroke="#6F5F5E" stroke-width="2" stroke-linejoin="round"/>
<path d="M87.0598 66.3C81.1298 66.3 63.7198 70.68 63.7198 70.68C44.1498 33 29.4898 76.25 32.5198 81C10.6898 50.46 12.4198 83.69 14.9998 86.8C7.0898 76.63 2.5498 82.86 2.5498 82.86" stroke="#6F5F5E" stroke-width="3" stroke-linejoin="round"/>
<path d="M171.58 82.8599C171.58 82.8599 167 76.6299 159.13 86.7999C161.71 83.6899 163.44 50.4599 141.6 80.9799C144.6 76.2499 129.98 32.9799 110.4 70.6799C110.4 70.6799 93.0001 66.2999 87.0601 66.2999" stroke="#6F5F5E" stroke-width="3" stroke-linejoin="round"/>
<path d="M159.13 86.7999C159.13 86.7999 157.05 103 144.13 106.39C118.31 113.19 105.79 91.7099 101.87 95.0999C99.87 96.8199 102.62 105.64 88.25 107.52H86.43C72.06 105.64 74.79 96.8199 72.81 95.0999C68.89 91.7099 56.37 113.19 30.55 106.39C17.67 103 15 86.7999 15 86.7999" stroke="#6F5F5E" stroke-width="2.99" stroke-linejoin="round"/>
<path d="M32.5198 81C30.2298 81.8 48.8698 72.38 63.7198 70.7" stroke="#6F5F5E" stroke-width="3" stroke-linejoin="round"/>
<path d="M141.23 81C143.52 81.8 124.88 72.38 110.03 70.7" stroke="#6F5F5E" stroke-width="3" stroke-linejoin="round"/>
<path d="M73.1401 68.49C77.7981 70.2812 81.8928 73.2849 85.0001 77.19L86.0001 83.68C87.417 83.1984 88.9533 83.1984 90.3701 83.68" stroke="#6F5F5E" stroke-width="3" stroke-linejoin="round"/>
<path d="M102.57 68.71C102.57 68.71 96.6198 70.41 90.9698 77.19L89.9698 83.68C88.5497 83.1976 87.01 83.1976 85.5898 83.68" stroke="#6F5F5E" stroke-width="3" stroke-linejoin="round"/>
<path d="M45.9302 87.4699C45.9302 87.4699 57.7902 98.5299 67.9302 83.6799" stroke="#F6FEFF" stroke-width="3" stroke-linecap="round" stroke-linejoin="round"/>
<path d="M129.64 87.4699C129.64 87.4699 117.78 98.5299 107.64 83.6799" stroke="#F6FEFF" stroke-width="3" stroke-linecap="round" stroke-linejoin="round"/>
<path d="M16.8497 134.63C16.2497 133.06 21.1797 119.92 30.7797 120.32C34.6399 120.47 38.3116 122.028 41.1025 124.699C43.8933 127.37 45.6103 130.97 45.9297 134.82C46.4097 140.82 50.7297 162.82 53.1797 164.56" stroke="#6F5F5E" stroke-width="3" stroke-linecap="round" stroke-linejoin="round"/>
<path d="M48 136.51C48 136.51 62 137.45 69.9 148.75C69.9 148.75 69.34 123.15 87.03 145.36" stroke="#6F5F5E" stroke-width="3" stroke-linecap="round" stroke-linejoin="round"/>
<path d="M157.65 134.63C158.25 133.06 153.32 119.92 143.72 120.32C139.86 120.47 136.188 122.028 133.397 124.699C130.606 127.37 128.889 130.97 128.57 134.82C128.09 140.82 123.77 162.82 121.32 164.56" stroke="#6F5F5E" stroke-width="3" stroke-linecap="round" stroke-linejoin="round"/>
<path d="M126.48 136.51C126.48 136.51 112.48 137.45 104.57 148.75C104.57 148.75 105.13 123.15 87.4399 145.36" stroke="#6F5F5E" stroke-width="3" stroke-linecap="round" stroke-linejoin="round"/>
<path d="M24.7002 137.19C26.7933 137.19 28.4902 135.229 28.4902 132.81C28.4902 130.391 26.7933 128.43 24.7002 128.43C22.607 128.43 20.9102 130.391 20.9102 132.81C20.9102 135.229 22.607 137.19 24.7002 137.19Z" fill="#6F5F5E" stroke="#6F5F5E" stroke-width="2" stroke-linecap="round" stroke-linejoin="round"/>
<path d="M36.1201 138.1C38.2132 138.1 39.9101 135.736 39.9101 132.82C39.9101 129.904 38.2132 127.54 36.1201 127.54C34.0269 127.54 32.3301 129.904 32.3301 132.82C32.3301 135.736 34.0269 138.1 36.1201 138.1Z" fill="#6F5F5E" stroke="#6F5F5E" stroke-width="2" stroke-linecap="round" stroke-linejoin="round"/>
<path d="M26.8499 146.67C29.5299 147.91 30.7599 150.39 32.8499 152.67C33.7684 153.405 34.7764 154.019 35.8499 154.5C36.9468 155.091 37.9564 155.831 38.8499 156.7C40.1799 154.54 39.6399 151.24 37.9999 147.86C35.8199 143.37 34.7999 139.36 27.6699 142.86C26.6029 143.355 25.7732 144.249 25.3599 145.35C25.9425 145.682 26.4498 146.132 26.8499 146.67V146.67Z" fill="#6F5F5E" stroke="#6F5F5E" stroke-width="2" stroke-linecap="round" stroke-linejoin="round"/>
<path d="M149.8 137.19C151.893 137.19 153.59 135.229 153.59 132.81C153.59 130.391 151.893 128.43 149.8 128.43C147.707 128.43 146.01 130.391 146.01 132.81C146.01 135.229 147.707 137.19 149.8 137.19Z" fill="#6F5F5E" stroke="#6F5F5E" stroke-width="2" stroke-linecap="round" stroke-linejoin="round"/>
<path d="M138.38 138.1C140.473 138.1 142.17 135.736 142.17 132.82C142.17 129.904 140.473 127.54 138.38 127.54C136.287 127.54 134.59 129.904 134.59 132.82C134.59 135.736 136.287 138.1 138.38 138.1Z" fill="#6F5F5E" stroke="#6F5F5E" stroke-width="2" stroke-linecap="round" stroke-linejoin="round"/>
<path d="M149 145C148.556 144.046 147.792 143.279 146.84 142.83C139.71 139.36 138.7 143.37 136.52 147.83C134.85 151.26 134.31 154.61 135.73 156.77C137.09 155.72 138.47 154.69 139.85 153.66C140.62 152.99 141.43 152.34 142.26 151.66C143.43 150.76 144.67 149.87 145.87 148.93C146.781 147.52 147.83 146.204 149 145V145Z" fill="#6F5F5E" stroke="#6F5F5E" stroke-width="2" stroke-linecap="round" stroke-linejoin="round"/>
<path d="M113.7 122.77C113.7 122.77 98.2501 126.44 87.3401 117.97H87.0001C76.0901 126.44 60.6401 122.77 60.6401 122.77" stroke="#6F5F5E" stroke-width="3" stroke-linecap="round" stroke-linejoin="round"/>
<path d="M75.2998 29.3099L71.1098 36.8199L71.6298 45.4099L64.1198 41.2099L55.5298 41.7299L59.7298 34.2199L59.1998 25.6399L66.7098 29.8299L75.2998 29.3099Z" fill="#F6FEFF"/>
<path d="M125.74 36.6899L113.1 40.3799C112.984 40.4137 112.88 40.4795 112.8 40.5699L104.15 50.4999C104.074 50.5847 103.978 50.6479 103.869 50.6828C103.761 50.7178 103.646 50.7234 103.535 50.6989C103.424 50.6745 103.321 50.621 103.238 50.5438C103.155 50.4666 103.093 50.3686 103.06 50.2599L99.3701 37.6199C99.3385 37.503 99.2723 37.3984 99.1801 37.3199L89.2501 28.6699C89.1653 28.5943 89.1022 28.4974 89.0672 28.3893C89.0322 28.2811 89.0267 28.1657 89.0511 28.0547C89.0755 27.9437 89.1291 27.8412 89.2062 27.7578C89.2834 27.6743 89.3814 27.6129 89.4901 27.5799L102.13 23.8899C102.245 23.8547 102.349 23.7891 102.43 23.6999L111.08 13.7699C111.156 13.6851 111.253 13.622 111.361 13.587C111.469 13.552 111.584 13.5464 111.695 13.5709C111.806 13.5953 111.909 13.6489 111.992 13.726C112.076 13.8032 112.137 13.9012 112.17 14.0099L115.86 26.6499C115.898 26.7665 115.967 26.8704 116.06 26.9499L126 35.5999C126.085 35.6769 126.147 35.7753 126.181 35.8846C126.215 35.9939 126.218 36.1103 126.192 36.2216C126.165 36.3329 126.109 36.4351 126.03 36.5174C125.95 36.5998 125.85 36.6594 125.74 36.6899V36.6899Z" fill="#F6FEFF"/>
<path d="M81.4398 20.41C83.7373 20.41 85.5998 18.5475 85.5998 16.25C85.5998 13.9525 83.7373 12.09 81.4398 12.09C79.1423 12.09 77.2798 13.9525 77.2798 16.25C77.2798 18.5475 79.1423 20.41 81.4398 20.41Z" fill="#F6FEFF"/>
</svg>
