<svg width="408" height="234" viewBox="0 0 408 234" fill="none" xmlns="http://www.w3.org/2000/svg">
<path d="M286.829 59.8354C287.451 57.7245 287.768 55.5361 287.771 53.3361C287.771 36.6131 269.557 23.047 247.077 23.047C236.07 23.047 226.098 26.307 218.777 31.5787C209.961 25.9155 199.672 22.9495 189.183 23.047C182.403 23.0286 175.676 24.2417 169.333 26.6268C162.726 13.4527 148.188 4.29165 131.289 4.29165C123.845 4.26592 116.514 6.10344 109.968 9.63557C107.103 6.6149 103.653 4.20381 99.8267 2.54777C96.0005 0.891727 91.8771 0.025043 87.7055 0C69.657 0 55.0256 16.1453 55.0256 36.1076C55.0256 36.9123 55.0256 37.717 55.1085 38.5113C35.2582 41.792 20.6372 53.0266 20.6372 66.3658C20.6465 68.5599 21.0425 70.7353 21.8073 72.7929C9.31935 75.6712 0 87.8446 0 102.411C0 116.978 9.49539 129.337 22.0869 132.113C37.4742 150.073 80.5399 163 131.268 163C172.263 163 208.257 154.551 228.676 141.841C232.86 142.479 237.087 142.8 241.32 142.8C259.73 142.8 275.998 136.868 285.845 127.8C305.851 124.829 321 110.727 321 93.7559C321 77.0742 306.327 63.1367 286.829 59.8354Z" fill="#94A9AC"/>
<path d="M376.171 137.797C376.75 135.829 377.046 133.788 377.049 131.737C377.049 116.142 360.083 103.492 339.143 103.492C328.89 103.492 319.602 106.532 312.783 111.448C304.571 106.167 294.988 103.401 285.217 103.492C278.902 103.475 272.636 104.606 266.727 106.83C260.574 94.5448 247.032 86.002 231.291 86.002C224.357 85.978 217.529 87.6916 211.432 90.9853C208.763 88.1685 205.549 85.9201 201.985 84.3758C198.421 82.8315 194.58 82.0234 190.695 82C173.883 82 160.254 97.0557 160.254 115.671C160.254 116.421 160.254 117.172 160.332 117.912C141.842 120.972 128.223 131.448 128.223 143.887C128.231 145.933 128.6 147.962 129.313 149.881C117.681 152.565 109 163.916 109 177.5C109 191.084 117.845 202.609 129.573 205.197C143.906 221.946 184.02 234 231.272 234C269.457 234 302.983 226.121 322.004 214.269C325.901 214.864 329.838 215.163 333.78 215.164C350.93 215.164 366.082 209.632 375.255 201.176C393.889 198.405 408 185.254 408 169.429C408 153.873 394.333 140.876 376.171 137.797Z" fill="#738B8D"/>
</svg>
