<svg width="361" height="67" viewBox="0 0 361 67" fill="none" xmlns="http://www.w3.org/2000/svg">
<path d="M68.0109 16.3952V53.1369C68.0109 57.3578 70.9454 58.403 70.9454 61.3375V61.5184C70.9454 64.7142 65.4985 65.5382 59.2878 65.5382C53.0771 65.5382 47.5296 64.674 47.5296 61.5184V61.3375C47.5296 58.403 50.4641 57.3176 50.4641 53.1369V16.8374C45.2785 29.9623 37.1583 50.1019 35.6911 53.6595C34.3846 56.8553 32.9174 57.6794 30.5055 57.6794C28.4955 57.6794 26.2645 57.0764 24.4756 53.2575C23.2697 50.4235 14.9686 31.5703 10.6472 21.802V53.0967C10.6472 57.3176 14.446 58.3628 14.446 61.2973V61.4782C14.446 64.4127 11.0894 65.498 7.19015 65.498C3.29086 65.498 0.0146484 64.3725 0.0146484 61.4782V61.2973C0.0146484 58.3628 3.83355 57.2774 3.83355 53.0967V16.9178C3.83355 12.6969 0.537252 11.6518 0.537252 8.71726V8.53636C0.537252 5.34055 4.25564 4.51648 8.9187 4.51648C20.9783 4.51648 21.8024 7.2902 23.6113 11.3503C24.8173 14.2044 31.1285 29.1583 34.7665 37.8815C34.7665 37.8815 44.8162 13.1592 46.0825 10.2247C47.8914 6.20484 50.4038 4.51648 59.2275 4.51648C65.4382 4.51648 70.8851 4.85818 70.8851 8.07408V8.23486C70.9454 11.2096 68.0109 12.2548 68.0109 16.3952Z" fill="#F6FEFF"/>
<path d="M99.0446 61.3376V61.5185C99.0446 64.7143 93.6781 65.5384 87.3669 65.5384C81.0557 65.5384 75.7092 64.6741 75.7092 61.5185V61.3376C75.7092 58.4031 78.5633 57.3178 78.5633 53.1371V40.5951C78.5633 36.4546 75.7092 35.4094 75.7092 32.5553V32.3744C75.7092 29.1786 79.0859 26.9476 85.7589 24.3347C91.3667 22.3247 96.2106 22.0835 96.2106 27.0883V53.2175C96.1905 57.358 99.0446 58.4031 99.0446 61.3376ZM77.3574 9.74249C77.3574 3.95386 81.92 0.677673 87.4071 0.677673C92.8942 0.677673 97.4568 3.95386 97.4568 9.74249C97.4568 15.5311 92.7937 18.8274 87.4071 18.8274C82.0205 18.8274 77.3574 15.5914 77.3574 9.74249Z" fill="#F6FEFF"/>
<path d="M153.393 61.3375V61.5184C153.393 64.7142 147.966 65.5382 141.655 65.5382C135.344 65.5382 129.977 64.674 129.977 61.5184V61.3375C129.977 58.403 132.912 57.3176 132.912 53.1369V39.4693C132.912 33.6003 131.183 31.4296 128.168 31.4296C125.576 31.4296 123.505 33.6606 123.405 38.9467V53.1168C123.405 57.3377 126.359 58.3829 126.359 61.3174V61.4983C126.359 64.6941 120.913 65.5181 114.601 65.5181C108.29 65.5181 102.924 64.6539 102.924 61.4983V61.3174C102.924 58.3829 105.858 57.2975 105.858 53.1168V40.5748C105.858 36.4343 102.924 35.3891 102.924 32.535V32.3541C102.924 29.1583 106.3 26.9273 112.973 24.3144C118.682 22.3044 122.299 22.1436 122.299 27.068V29.6608C123.346 27.6831 124.898 26.0182 126.798 24.8354C128.697 23.6526 130.876 22.9943 133.113 22.9275C144.871 22.4049 150.479 30.103 150.479 39.6904V53.0967C150.459 57.3578 153.393 58.403 153.393 61.3375Z" fill="#F6FEFF"/>
<path d="M208.204 58.0612V58.2421C208.204 61.4379 205.852 64.5332 199.642 65.8397C194.536 66.9653 190.054 65.3171 189.009 61.3374C188.874 61.0032 188.76 60.6609 188.667 60.3124C187.261 62.141 185.453 63.6216 183.382 64.6393C181.312 65.657 179.035 66.1847 176.728 66.1814C164.809 66.1814 156.428 57.8803 156.428 44.5745C156.428 31.2687 165.412 22.9677 177.251 22.9677C180.456 22.8671 183.607 23.8048 186.235 25.6409V17.6011C186.235 13.4607 183.381 12.4155 183.381 9.56139V9.3805C183.381 6.1847 186.758 3.95367 193.431 1.34074C199.059 -0.669195 203.903 -0.910397 203.903 4.09435V49.7602C203.883 54.0815 208.204 55.1267 208.204 58.0612ZM186.678 44.5745C186.678 36.8765 184.869 30.505 180.648 30.505C176.929 30.505 174.517 35.2484 174.517 44.5745C174.517 53.9006 176.929 58.6441 180.648 58.6441C184.869 58.6642 186.678 52.353 186.678 44.5745Z" fill="#F6FEFF"/>
<path d="M256.704 23.1488H256.523C250.654 23.1488 249.87 11.6519 241.85 11.6519H236.825C233.891 11.6519 232.504 13.0388 232.504 17.2597V33.0779H240.544C244.785 33.0779 244.704 26.6059 247.639 26.6059H247.8C250.392 26.6059 250.754 30.2238 250.754 36.535C250.754 42.8462 250.392 46.5847 247.8 46.5847H247.639C244.704 46.5847 244.785 40.0926 240.544 40.0926H232.504V53.7803C232.504 57.3982 236.042 58.7046 236.042 61.9808C236.042 65.0761 231.378 65.5183 223.781 65.5183C217.47 65.5183 212.023 65.1766 212.023 61.9808C212.023 59.0463 214.957 57.9609 214.957 53.7803V17.2597C214.957 13.0388 212.023 11.9936 212.023 9.05911C212.023 5.76281 215.741 4.89854 220.404 4.89854H244.523C249.106 4.89854 250.232 3.43127 253.166 3.43127C255.679 3.43127 256.804 4.63724 257.327 7.45115C257.93 10.5666 258.874 16.0939 259.216 18.8475C259.558 21.6011 258.573 23.1488 256.704 23.1488Z" fill="#F6FEFF"/>
<path d="M309.144 58.0612V58.2421C309.144 61.4379 306.289 64.5332 300.059 65.8397C294.973 66.9652 291.255 65.2367 290.009 61.3374C289.791 60.681 289.623 60.0091 289.506 59.3275C288.383 61.4927 286.659 63.2885 284.542 64.5004C282.425 65.7122 280.004 66.2888 277.567 66.1613C265.809 66.1613 260.282 58.4632 260.282 48.8758V39.3688C260.282 35.1278 257.347 34.1027 257.347 31.1682V30.9873C257.347 27.7915 259.759 25.1987 266.935 23.651C272.824 22.3446 277.829 22.5255 277.829 27.5302V49.6396C277.829 55.5086 279.477 57.6793 282.492 57.6793C285.185 57.6793 287.255 55.5086 287.336 50.2425V39.3487C287.336 35.1077 284.401 34.0826 284.401 31.1481V30.9672C284.401 27.7714 286.813 25.1786 293.989 23.6309C299.878 22.3245 304.882 22.5054 304.882 27.5101V49.7601C304.822 54.0815 309.144 55.1267 309.144 58.0612Z" fill="#F6FEFF"/>
<path d="M334.629 61.3374V61.5183C334.629 64.7141 329.283 65.5382 322.972 65.5382C316.66 65.5382 311.294 64.6739 311.294 61.5183V61.3374C311.294 58.4029 314.148 57.3175 314.148 53.1369V17.6011C314.148 13.4607 311.294 12.4155 311.294 9.56139V9.3805C311.294 6.1847 314.671 3.95367 321.344 1.34074C326.971 -0.669195 331.795 -0.910397 331.795 4.09435V53.1972C331.775 57.3577 334.629 58.4029 334.629 61.3374Z" fill="#F6FEFF"/>
<path d="M361 61.3374V61.5183C361 64.7141 355.634 65.5382 349.322 65.5382C343.011 65.5382 337.665 64.6739 337.665 61.5183V61.3374C337.665 58.4029 340.519 57.3175 340.519 53.1369V17.6011C340.519 13.4607 337.665 12.4155 337.665 9.56139V9.3805C337.665 6.1847 341.041 3.95367 347.714 1.34074C353.322 -0.669195 358.166 -0.910397 358.166 4.09435V53.1972C358.146 57.3577 361 58.4029 361 61.3374Z" fill="#F6FEFF"/>
</svg>
